<svg fill="#333333" height="24" width="24" viewBox="0 0 24 24" xmlns="http://www.w3.org/2000/svg">
    <path d="M11,18.7C8,18.3,5.7,16,5.3,13H2.4C2.2,13,2,12.8,2,12.6v-1.2C2,11.2,2.2,11,2.4,11h2.9C5.7,8,8,5.7,11,5.3V2.4C11,2.2,11.2,2,11.4,2h1.2C12.8,2,13,2.2,13,2.4v2.9c3,0.4,5.3,2.8,5.7,5.7h2.9c0.2,0,0.4,0.2,0.4,0.4v1.2c0,0.2-0.2,0.4-0.4,0.4h-2.9c-0.4,3-2.8,5.3-5.7,5.7v2.9c0,0.2-0.2,0.4-0.4,0.4h-1.2c-0.2,0-0.4-0.2-0.4-0.4V18.7z M11,17.1v-1.7c0-0.2,0.2-0.4,0.4-0.4h1.2c0.2,0,0.4,0.2,0.4,0.4v1.7c2.1-0.4,3.7-2,4.1-4.1h-1.7c-0.2,0-0.4-0.2-0.4-0.4v-1.2c0-0.2,0.2-0.4,0.4-0.4h1.7c-0.4-2.1-2-3.7-4.1-4.1v1.7C13,8.8,12.8,9,12.6,9h-1.2C11.2,9,11,8.8,11,8.6V6.9c-2.1,0.4-3.7,2-4.1,4.1h1.7C8.8,11,9,11.2,9,11.4v1.2C9,12.8,8.8,13,8.6,13H6.9C7.3,15.1,8.9,16.7,11,17.1z"/>
</svg>
