<?xml version="1.0" encoding="UTF-8"?>
<svg width="24px" height="24px" viewBox="0 0 24 24" version="1.1" xmlns="http://www.w3.org/2000/svg" xmlns:xlink="http://www.w3.org/1999/xlink">
    <!-- Generator: Sketch 47.1 (45422) - http://www.bohemiancoding.com/sketch -->
    <title>Icon/angle/left</title>
    <desc>Created with Sketch.</desc>
    <defs></defs>
    <g id="2.-Core" stroke="none" stroke-width="1" fill="none" fill-rule="evenodd">
        <g id="Core/Icons" transform="translate(-160.000000, -160.000000)" fill="#333333">
            <g id="Arrows" transform="translate(40.000000, 120.000000)">
                <g id="Icon/angle/left-a01" transform="translate(120.000000, 40.000000)">
                    <path d="M14.8069996,6.52951791 C14.5519996,6.27443706 14.1389996,6.27443706 13.8839996,6.52951791 L8.88399955,11.5331038 C8.76199955,11.6541422 8.69099955,11.8211951 8.69099955,11.9952503 C8.69099955,12.1693054 8.76199955,12.3363584 8.88499955,12.4593974 L13.8839996,17.4609826 C14.0479996,17.6250346 14.2889996,17.6900552 14.5149996,17.6290359 C14.7389996,17.5700172 14.9169996,17.3929611 14.9759996,17.16889 C15.0359996,16.9428184 14.9719996,16.7007417 14.8069996,16.53769 L10.2739996,12.0002518 L14.8079996,7.45381086 C14.9349996,7.32577028 14.9989996,7.15871733 14.9989996,6.99166439 C14.9989996,6.82461144 14.9349996,6.65755849 14.8069996,6.52951791 Z" id="Icon"></path>
                </g>
            </g>
        </g>
    </g>
</svg>