<?xml version="1.0" encoding="UTF-8"?>
<svg width="24px" height="24px" viewBox="0 0 24 24" version="1.1" xmlns="http://www.w3.org/2000/svg" xmlns:xlink="http://www.w3.org/1999/xlink">
    <!-- Generator: Sketch 47.1 (45422) - http://www.bohemiancoding.com/sketch -->
    <title>Icon/angle/right</title>
    <desc>Created with Sketch.</desc>
    <defs></defs>
    <g id="2.-Core" stroke="none" stroke-width="1" fill="none" fill-rule="evenodd">
        <g id="Core/Icons" transform="translate(-200.000000, -160.000000)" fill="#333333">
            <g id="Arrows" transform="translate(40.000000, 120.000000)">
                <g id="Icon/angle/right-a01" transform="translate(160.000000, 40.000000)">
                    <path d="M9.19299997,17.4702796 C9.44799997,17.7253605 9.86099997,17.7253605 10.116,17.4702796 L15.116,12.4666938 C15.238,12.3456554 15.309,12.1786024 15.309,12.0045473 C15.309,11.8304921 15.238,11.6634392 15.115,11.5404002 L10.116,6.53881493 C9.95199997,6.37476293 9.71099997,6.30974232 9.48499997,6.37076166 C9.26099997,6.42978037 9.08299997,6.60683649 9.02399997,6.83090751 C8.96399997,7.05697916 9.02799997,7.29905589 9.19299997,7.46210756 L13.726,11.9995457 L9.19199997,16.5459867 C9.06499997,16.6740273 9.00099997,16.8410802 9.00099997,17.0081332 C9.00099997,17.1751861 9.06499997,17.3422391 9.19299997,17.4702796 Z" id="Icon"></path>
                </g>
            </g>
        </g>
    </g>
</svg>