<svg fill="#333333" height="24" width="24" viewBox="0 0 24 24" xmlns="http://www.w3.org/2000/svg">
    <path opacity="0.2" d="M12,21c-5,0-9-4-9-9s4-9,9-9s9,4,9,9S17,21,12,21z M18,6.5c0.3,0,0.5-0.2,0.5-0.5S18.3,5.5,18,5.5S17.5,5.7,17.5,6S17.7,6.5,18,6.5z M12,12.5c0.3,0,0.5-0.2,0.5-0.5s-0.2-0.5-0.5-0.5s-0.5,0.2-0.5,0.5S11.7,12.5,12,12.5z"/>
    <path d="M17.4,7.4l-4,4c0.1,0.2,0.1,0.4,0.1,0.6c0,0.8-0.7,1.5-1.5,1.5s-1.5-0.7-1.5-1.5s0.7-1.5,1.5-1.5c0.3,0,0.5,0.1,0.7,0.2l4-4c-0.1-0.2-0.2-0.5-0.2-0.7c0-0.2,0-0.4,0.1-0.5C15.3,4.5,13.7,4,12,4c-4.4,0-8,3.6-8,8s3.6,8,8,8s8-3.6,8-8c0-1.7-0.5-3.3-1.5-4.6c-0.2,0.1-0.4,0.1-0.5,0.1C17.8,7.5,17.6,7.5,17.4,7.4z M17.3,4.7c0.2-0.1,0.5-0.2,0.7-0.2c0.8,0,1.5,0.7,1.5,1.5c0,0.3-0.1,0.5-0.2,0.7C20.4,8.2,21,10,21,12c0,5-4,9-9,9s-9-4-9-9s4-9,9-9C14,3,15.8,3.6,17.3,4.7z M12,12.5c0.3,0,0.5-0.2,0.5-0.5s-0.2-0.5-0.5-0.5s-0.5,0.2-0.5,0.5S11.7,12.5,12,12.5z M18,6.5c0.3,0,0.5-0.2,0.5-0.5S18.3,5.5,18,5.5S17.5,5.7,17.5,6S17.7,6.5,18,6.5z"/>
</svg>
