<svg fill="#333333" height="24" width="24" viewBox="0 0 24 24" xmlns="http://www.w3.org/2000/svg">
    <path d="M2.7,18.3c-0.1,0.1-0.3,0.1-0.4,0.1C2.1,18.4,2,18.2,2,18.1v-8c0-0.2,0.1-0.3,0.2-0.4c0.1-0.1,0.3,0,0.4,0.1l4,4c0.1,0.1,0.1,0.2,0.1,0.3c0,0.1,0,0.2-0.1,0.3L2.7,18.3z M8,10h1.8v8H8V10z M17.5,12.2c-0.2-0.5-0.4-0.9-0.8-1.2s-0.8-0.6-1.2-0.7c-0.5-0.2-1-0.2-1.6-0.2h-2.2v8h2.3c0.6,0,1.1-0.1,1.6-0.2c0.5-0.2,0.9-0.4,1.2-0.7s0.6-0.8,0.8-1.3c0.2-0.5,0.3-1.1,0.3-1.8S17.6,12.7,17.5,12.2z M15.8,15.2c-0.1,0.3-0.3,0.6-0.4,0.8c-0.2,0.2-0.4,0.3-0.7,0.4s-0.6,0.1-0.9,0.1h-0.3v-5.1h0.3c0.3,0,0.6,0,0.9,0.1s0.5,0.2,0.7,0.4c0.2,0.2,0.3,0.4,0.4,0.8c0.1,0.3,0.2,0.7,0.2,1.2C15.9,14.4,15.9,14.9,15.8,15.2z M19.5,3H17V2.5C17,2.2,16.8,2,16.5,2h-9C7.2,2,7,2.2,7,2.5V3H4.5C4.2,3,4,3.2,4,3.5V10l1,1V4h2v2.5C7,6.8,7.2,7,7.5,7h9C16.8,7,17,6.8,17,6.5V4h2v17H5v-4l-1,1v3.5C4,21.8,4.2,22,4.5,22h15c0.3,0,0.5-0.2,0.5-0.5v-18C20,3.2,19.8,3,19.5,3z M16,6H8V3h8V6z"/>
</svg>
