<svg xmlns="http://www.w3.org/2000/svg" width="24" height="24" viewBox="0 0 24 24">
  <path fill="#FFF" d="M5,4 L5,21 L19,21 L19,4 L5,4 Z M4.5,3 L19.5,3 C19.7761424,3 20,3.22385763 20,3.5 L20,21.5 C20,21.7761424 19.7761424,22 19.5,22 L4.5,22 C4.22385763,22 4,21.7761424 4,21.5 L4,3.5 C4,3.22385763 4.22385763,3 4.5,3 Z M4,10 L4,18 L5,16.9856136 L5,11.011086 L4,10 Z M8,3 L8,4 L16,4 L16,3 L8,3 Z M8,3 L8,6 L16,6 L16,3 L8,3 Z M7.5,2 L16.5,2 C16.7761424,2 17,2.22385763 17,2.5 L17,6.5 C17,6.77614237 16.7761424,7 16.5,7 L7.5,7 C7.22385763,7 7,6.77614237 7,6.5 L7,2.5 C7,2.22385763 7.22385763,2 7.5,2 Z M2.68011539,18.3355944 C2.56581991,18.447655 2.39572869,18.4808012 2.2477179,18.4198568 C2.09970711,18.3589124 2.00227232,18.2156108 2.000024,18.0555625 L2.000024,10.0544227 C1.99825699,9.89255634 2.09421477,9.7455785 2.24311839,9.68207678 C2.39202202,9.61857506 2.56451986,9.65106681 2.68011539,9.76438969 L6.680653,13.7649596 C6.7570064,13.8401511 6.80000019,13.9428316 6.80000019,14.049992 C6.80000019,14.1571525 6.7570064,14.259833 6.680653,14.3350245 L2.68011539,18.3355944 Z M8,10 L9.76327582,10 L9.76327582,18 L8,18 L8,10 Z M11.6105172,10 L13.8176107,10 C14.4173674,10 14.9571403,10.0777088 15.4369456,10.2331288 C15.916751,10.3885488 16.3285777,10.6278102 16.6724382,10.9509202 C17.0162987,11.2740302 17.2801877,11.6850691 17.4641131,12.1840491 C17.6480385,12.6830291 17.7399998,13.2760702 17.7399998,13.9631902 C17.7399998,14.6503102 17.6480385,15.2474412 17.4641131,15.7546012 C17.2801877,16.2617612 17.020297,16.6809799 16.6844333,17.0122699 C16.3485696,17.3435599 15.9467386,17.5910012 15.4789284,17.7546012 C15.0111182,17.9182012 14.4893377,18 13.9135713,18 L11.6105172,18 L11.6105172,10 Z M13.709655,16.5398773 C14.0455188,16.5398773 14.3493909,16.494888 14.6212806,16.404908 C14.8931703,16.314928 15.1250728,16.1697352 15.3169949,15.9693252 C15.508917,15.7689152 15.658854,15.5051141 15.7668102,15.1779141 C15.8747664,14.8507141 15.9287437,14.4458102 15.9287437,13.9631902 C15.9287437,13.4887502 15.8747664,13.0899812 15.7668102,12.7668712 C15.658854,12.4437612 15.508917,12.186095 15.3169949,11.993865 C15.1250728,11.801635 14.8931703,11.6646221 14.6212806,11.5828221 C14.3493909,11.5010221 14.0455188,11.4601227 13.709655,11.4601227 L13.373793,11.4601227 L13.373793,16.5398773 L13.709655,16.5398773 Z"/>
</svg>
