<svg xmlns="http://www.w3.org/2000/svg" width="24" height="24" viewBox="0 0 24 24">
  <path fill="#333" d="M5,4 L5,21 L19,21 L19,4 L5,4 Z M4.5,3 L19.5,3 C19.7761424,3 20,3.22385763 20,3.5 L20,21.5 C20,21.7761424 19.7761424,22 19.5,22 L4.5,22 C4.22385763,22 4,21.7761424 4,21.5 L4,3.5 C4,3.22385763 4.22385763,3 4.5,3 Z M4,12 L4,16 L5,16 L5,12 L4,12 Z M8,3 L8,4 L16,4 L16,3 L8,3 Z M8,3 L8,6 L16,6 L16,3 L8,3 Z M10.1297475,14.9000003 L3,14.9000003 L3,13.1000004 L10.112563,13.1000004 L7.2746446,10.262082 L8.47672616,9.06000042 L13.4264736,14.0097479 L12.2243921,15.2118294 L12.2232368,15.2106742 L8.47208154,18.9618294 L7.26999998,17.7597479 L10.1297475,14.9000003 Z M7.5,2 L16.5,2 C16.7761424,2 17,2.22385763 17,2.5 L17,6.5 C17,6.77614237 16.7761424,7 16.5,7 L7.5,7 C7.22385763,7 7,6.77614237 7,6.5 L7,2.5 C7,2.22385763 7.22385763,2 7.5,2 Z"/>
</svg>
