<svg xmlns="http://www.w3.org/2000/svg" xmlns:xlink="http://www.w3.org/1999/xlink" width="24" height="24" viewBox="0 0 24 24">
  <defs>
    <path id="code-a" d="M9.32683654,15.9830133 C9.56839885,16.2216519 9.66255751,16.5744501 9.57510592,16.9038547 C9.48860794,17.2322597 9.22906953,17.4909904 8.90217717,17.5770873 C8.57304815,17.6659247 8.22118717,17.5719051 7.98084485,17.3315584 L2.98186606,12.3314899 C2.80222981,12.1518505 2.7,11.9084234 2.7,11.6553515 C2.7,11.4021525 2.80236872,11.1582469 2.98082365,10.9812555 L7.98086606,5.9791233 C8.35302379,5.6069589 8.95597621,5.6069589 9.32813394,5.9791233 C9.50952629,6.1605189 9.608,6.40247624 9.608,6.65326172 C9.608,6.90339422 9.51001505,7.14509478 9.3293908,7.32714297 L5.00693321,11.6601651 L9.32683654,15.9830133 Z M19.3010668,11.6498354 L14.9811635,7.32698713 C14.7396011,7.08834857 14.6454425,6.73555036 14.7328941,6.40614569 C14.8193921,6.07774071 15.0789305,5.81900998 15.4058228,5.73291307 C15.7349519,5.64407577 16.0868128,5.73809535 16.3271552,5.97844199 L21.3261339,10.9785105 C21.5057702,11.15815 21.608,11.401577 21.608,11.6546489 C21.608,11.9078479 21.5056313,12.1517535 21.3271764,12.3287449 L16.3271339,17.3308771 C15.9549762,17.7030415 15.3520238,17.7030415 14.9798661,17.3308771 C14.7984737,17.1494815 14.7,16.9075242 14.7,16.6567387 C14.7,16.4066062 14.797985,16.1649056 14.9786092,15.9828575 L19.3010668,11.6498354 Z M12.6890018,2.34143111 L14.6585689,2.68900178 L11.3109982,21.6585689 L9.34143111,21.3109982 L12.6890018,2.34143111 Z"/>
  </defs>
  <g fill="none" fill-rule="evenodd">
    <use fill="#333" fill-rule="nonzero" xlink:href="#code-a"/>
  </g>
</svg>
