<svg fill="#333333" height="24" width="24" viewBox="0 0 24 24" xmlns="http://www.w3.org/2000/svg">
    <path d="M9.3,16c0.2,0.2,0.3,0.6,0.2,0.9c-0.1,0.3-0.3,0.6-0.7,0.7c-0.3,0.1-0.7,0-0.9-0.2l-5-5c-0.2-0.2-0.3-0.4-0.3-0.7c0-0.3,0.1-0.5,0.3-0.7l5-5c0.4-0.4,1-0.4,1.3,0c0.2,0.2,0.3,0.4,0.3,0.7c0,0.3-0.1,0.5-0.3,0.7L5,11.7L9.3,16z M19.3,11.6L15,7.3c-0.2-0.2-0.3-0.6-0.2-0.9c0.1-0.3,0.3-0.6,0.7-0.7c0.3-0.1,0.7,0,0.9,0.2l5,5c0.2,0.2,0.3,0.4,0.3,0.7c0,0.3-0.1,0.5-0.3,0.7l-5,5c-0.4,0.4-1,0.4-1.3,0c-0.2-0.2-0.3-0.4-0.3-0.7c0-0.3,0.1-0.5,0.3-0.7L19.3,11.6z M12.7,2.3l2,0.3l-3.3,19l-2-0.3L12.7,2.3z"/>
</svg>
