<svg height="24" width="24" viewBox="0 0 24 24" xmlns="http://www.w3.org/2000/svg">
    <polygon opacity="0.5" fill="#626366" points="12,6.7 7.5,9.3 7.5,14.5 12,17.1 16.5,14.5 16.5,9.3 "/>
    <polygon opacity="0.5" fill="#2B94BE" points="12,9.3 7.5,6.7 3,9.3 3,14.5 7.5,17.1 12,14.5 "/>
    <polygon opacity="0.5" fill="#84449A" points="9.8,2.9 5.3,5.4 5.3,10.6 9.8,13.2 14.3,10.6 14.3,5.4 "/>
    <polygon opacity="0.5" fill="#52B848" points="14.3,13.2 9.8,10.6 5.3,13.2 5.3,18.4 9.8,21 14.3,18.4 "/>
    <polygon opacity="0.5" fill="#EC1E24" points="14.3,2.9 9.8,5.4 9.8,10.6 14.3,13.2 18.8,10.6 18.8,5.4 "/>
    <polygon opacity="0.5" fill="#F7991C" points="16.5,6.7 12,9.3 12,14.5 16.5,17.1 21,14.5 21,9.3 "/>
</svg>
