<svg height="36" width="36" viewBox="0 0 36 36" xmlns="http://www.w3.org/2000/svg">
	<polygon opacity="0.5" fill="#626366" points="18,9.3 10.5,13.7 10.5,22.3 18,26.7 25.5,22.3 25.5,13.7 "/>
	<polygon opacity="0.5" fill="#2B94BE" points="18,13.7 10.5,9.4 3,13.7 3,22.3 10.5,26.7 18,22.3 "/>
	<polygon opacity="0.5" fill="#84449A" points="14.3,2.9 6.8,7.2 6.8,15.8 14.3,20.2 21.8,15.8 21.8,7.2 "/>
	<polygon opacity="0.5" fill="#52B848" points="21.8,20.2 14.3,15.8 6.8,20.2 6.8,28.8 14.3,33.1 21.8,28.8 "/>
	<polygon opacity="0.5" fill="#EC1E24" points="21.8,2.9 14.3,7.2 14.3,15.8 21.8,20.2 29.3,15.8 29.3,7.2 "/>
	<polygon opacity="0.5" fill="#F7991C" points="25.5,9.3 18,13.7 18,22.3 25.5,26.7 33,22.3 33,13.7 "/>
</svg>
