<?xml version="1.0" encoding="UTF-8"?>
<svg width="24px" height="24px" viewBox="0 0 24 24" version="1.1" xmlns="http://www.w3.org/2000/svg" xmlns:xlink="http://www.w3.org/1999/xlink">
    <!-- Generator: Sketch 48.1 (47250) - http://www.bohemiancoding.com/sketch -->
    <title>Icon/menu/dots</title>
    <desc>Created with Sketch.</desc>
    <defs>
        <path d="M12,20.75 C11.0335017,20.75 10.25,19.9664983 10.25,19 C10.25,18.0335017 11.0335017,17.25 12,17.25 C12.9664983,17.25 13.75,18.0335017 13.75,19 C13.75,19.9664983 12.9664983,20.75 12,20.75 Z M12,14 C11.0335017,14 10.25,13.2164983 10.25,12.25 C10.25,11.2835017 11.0335017,10.5 12,10.5 C12.9664983,10.5 13.75,11.2835017 13.75,12.25 C13.75,13.2164983 12.9664983,14 12,14 Z M12,6.75 C11.0335017,6.75 10.25,5.96649831 10.25,5 C10.25,4.03350169 11.0335017,3.25 12,3.25 C12.9664983,3.25 13.75,4.03350169 13.75,5 C13.75,5.96649831 12.9664983,6.75 12,6.75 Z" id="path-1"></path>
    </defs>
    <g id="Core/Icons" stroke="none" stroke-width="1" fill="none" fill-rule="evenodd" transform="translate(-100.000000, -1060.000000)">
        <g id="Menu" transform="translate(60.000000, 774.000000)">
            <g id="Icon/menu/dots-a01" transform="translate(40.000000, 286.000000)">
                <mask id="mask-2" fill="white">
                    <use xlink:href="#path-1"></use>
                </mask>
                <use id="Icon" fill="#333333" fill-rule="evenodd" transform="translate(12.000000, 12.125000) rotate(90.000000) translate(-12.000000, -12.125000) " xlink:href="#path-1"></use>
            </g>
        </g>
    </g>
</svg>