<svg xmlns="http://www.w3.org/2000/svg" xmlns:xlink="http://www.w3.org/1999/xlink" width="24" height="24" viewBox="0 0 24 24">
  <defs>
    <path id="open-a" d="M13.7088253,8.2447906 C14.7776424,8.84387941 15.5,9.98758197 15.5,11.3000002 C15.5,13.2329968 13.9329966,14.8000002 12,14.8000002 C10.0670034,14.8000002 8.5,13.2329968 8.5,11.3000002 C8.5,9.98758197 9.22235759,8.84387941 10.2911747,8.2447906 C8.94266136,8.6205427 7.56125846,9.4158244 6.20526084,10.5398004 C5.64343346,11.0054948 5.11979822,11.5000551 4.6432529,12 L2,12 C2,12 6.4771525,6 12,6 C17.5228475,6 22,12 22,12 L19.3567471,12 C18.8802018,11.5000551 18.3565665,11.0054948 17.7947392,10.5398004 C16.4387415,9.4158244 15.0573386,8.6205427 13.7088253,8.2447906 Z M22,12 C22,12 17.5228475,18 12,18 C6.4771525,18 2,12 2,12 L4.6432529,12 C5.11979822,12.4999449 5.64343346,12.9945052 6.20526084,13.4601996 C8.14161828,15.0652314 10.1297814,16 12,16 C13.8702186,16 15.8583817,15.0652314 17.7947392,13.4601996 C18.3565665,12.9945052 18.8802018,12.4999449 19.3567471,12 L22,12 Z"/>
  </defs>
  <g fill="none" fill-rule="evenodd">
    <mask id="open-b" fill="#fff">
      <use xlink:href="#open-a"/>
    </mask>
    <g fill="#333" mask="url(#open-b)">
      <rect width="24" height="24"/>
    </g>
  </g>
</svg>
