<svg xmlns="http://www.w3.org/2000/svg" xmlns:xlink="http://www.w3.org/1999/xlink" width="24" height="24" viewBox="0 0 24 24">
  <defs>
    <path id="closed-a" d="M16.0619443,7.01881691 C14.8207458,6.41143118 13.4462255,6 12,6 C6.4771525,6 2,12 2,12 L4.6432529,12 C5.11979822,11.5000551 5.64343346,11.0054948 6.20526084,10.5398004 C8.14161828,8.93476863 10.1297814,8 12,8 C12.8315361,8 13.6863882,8.18479131 14.5496361,8.53112511 L8.21367579,14.8670854 C7.54267934,14.484494 6.87090907,14.0119503 6.20526084,13.4601996 C5.64343346,12.9945052 5.11979822,12.4999449 4.6432529,12 L2,12 C2,12 3.90222149,14.5492384 6.75634984,16.3244113 L4.04038059,19.0403806 C3.7865398,19.2942214 3.7865398,19.7057786 4.04038059,19.9596194 C4.29422138,20.2134602 4.70577862,20.2134602 4.95961941,19.9596194 L7.93805572,16.9811831 C9.17925418,17.5885688 10.5537745,18 12,18 C17.5228475,18 22,12 22,12 L19.3567471,12 C18.8802018,12.4999449 18.3565665,12.9945052 17.7947392,13.4601996 C15.8583817,15.0652314 13.8702186,16 12,16 C11.1684639,16 10.3136118,15.8152087 9.45036393,15.4688749 L15.7863242,9.13291461 C16.4573207,9.51550605 17.1290909,9.98804968 17.7947392,10.5398004 C18.3565665,11.0054948 18.8802018,11.5000551 19.3567471,12 L22,12 C22,12 20.0977785,9.45076163 17.2436502,7.67558866 L19.9596194,4.95961941 C20.2134602,4.70577862 20.2134602,4.29422138 19.9596194,4.04038059 C19.7057786,3.7865398 19.2942214,3.7865398 19.0403806,4.04038059 L16.0619443,7.01881691 Z"/>
  </defs>
  <g fill="none" fill-rule="evenodd">
    <mask id="closed-b" fill="#fff">
      <use xlink:href="#closed-a"/>
    </mask>
    <g fill="#333" mask="url(#closed-b)">
      <rect width="24" height="24"/>
    </g>
  </g>
</svg>
