<?xml version="1.0" encoding="UTF-8"?>
<svg width="24px" height="24px" viewBox="0 0 24 24" version="1.1" xmlns="http://www.w3.org/2000/svg" xmlns:xlink="http://www.w3.org/1999/xlink">
    <!-- Generator: Sketch 48.1 (47250) - http://www.bohemiancoding.com/sketch -->
    <title>Icon/eye/open-f01</title>
    <desc>Created with Sketch.</desc>
    <defs></defs>
    <g id="Core/Icons" stroke="none" stroke-width="1" fill="none" fill-rule="evenodd" transform="translate(-1280.000000, -900.000000)">
        <g id="Visibility" transform="translate(1160.000000, 780.000000)" fill="#FFFFFF">
            <g id="Icon/eye/open-f01" transform="translate(120.000000, 120.000000)">
                <path d="M12,6 C6.477,6 2,12 2,12 C2,12 6.477,18 12,18 C17.523,18 22,12 22,12 C22,12 17.523,6 12,6 M12,7.6 C15.412,7.6 18.499,10.468 19.909,12.007 C18.298,13.765 15.197,16.4 12,16.4 C8.588,16.4 5.501,13.532 4.091,11.993 C5.702,10.235 8.803,7.6 12,7.6 M12,14.75 C13.5187831,14.75 14.75,13.5187831 14.75,12 C14.75,10.4812169 13.5187831,9.25 12,9.25 C10.4812169,9.25 9.25,10.4812169 9.25,12 C9.25,13.5187831 10.4812169,14.75 12,14.75 Z" id="Icon"></path>
            </g>
        </g>
    </g>
</svg>