<?xml version="1.0" encoding="UTF-8"?>
<svg width="24px" height="24px" viewBox="0 0 24 24" version="1.1" xmlns="http://www.w3.org/2000/svg" xmlns:xlink="http://www.w3.org/1999/xlink">
    <!-- Generator: Sketch 47.1 (45422) - http://www.bohemiancoding.com/sketch -->
    <title>Icon/eye/closed-f01</title>
    <desc>Created with Sketch.</desc>
    <defs></defs>
    <g id="2.-Core" stroke="none" stroke-width="1" fill="none" fill-rule="evenodd">
        <g id="Core/Icons" transform="translate(-1330.000000, -800.000000)" fill="#FFFFFF">
            <g id="Visibility" transform="translate(1170.000000, 680.000000)">
                <g id="Icon/eye/closed-f01" transform="translate(160.000000, 120.000000)">
                    <path d="M16.0619657,7.01879546 L19.0403806,4.04038059 C19.2942214,3.7865398 19.7057786,3.7865398 19.9596194,4.04038059 C20.2134602,4.29422138 20.2134602,4.70577862 19.9596194,4.95961941 L17.2436761,7.6755627 C20.0978248,9.45073678 22,12 22,12 C22,12 17.523,18 12,18 C10.5537516,18 9.17922758,17.5885785 7.93803428,16.9812045 L4.95961941,19.9596194 C4.70577862,20.2134602 4.29422138,20.2134602 4.04038059,19.9596194 C3.7865398,19.7057786 3.7865398,19.2942214 4.04038059,19.0403806 L6.75632389,16.3244373 C3.90217524,14.5492632 2,12 2,12 C2,12 6.477,6 12,6 C13.4462484,6 14.8207724,6.41142149 16.0619657,7.01879546 Z M14.7055962,8.375165 C13.8470884,8.02209694 12.9353106,7.8 12,7.8 C8.792,7.8 5.824,10.461 4.374,12.004 C5.19305231,12.8803803 6.49794317,14.1137295 8.06429444,15.0164667 L14.7055962,8.375165 Z M15.9357056,8.98353326 L9.29440382,15.624835 C10.1529116,15.9779031 11.0646894,16.2 12,16.2 C15.208,16.2 18.176,13.539 19.626,11.996 C18.8069477,11.1196197 17.5020568,9.8862705 15.9357056,8.98353326 Z" id="Icon"></path>
                </g>
            </g>
        </g>
    </g>
</svg>