<svg fill="#333333" height="24" width="24" viewBox="0 0 24 24" xmlns="http://www.w3.org/2000/svg">
    <path d="M16.1,7l3-3c0.3-0.3,0.7-0.3,0.9,0s0.3,0.7,0,0.9l-2.7,2.7C20.1,9.5,22,12,22,12s-4.5,6-10,6c-1.4,0-2.8-0.4-4.1-1l-3,3c-0.3,0.3-0.7,0.3-0.9,0S3.8,19.3,4,19l2.7-2.7C3.9,14.5,2,12,2,12s4.5-6,10-6C13.4,6,14.8,6.4,16.1,7z M14.9,8.2C14,7.8,13,7.6,12,7.6c-3.2,0-6.3,2.6-7.9,4.4c0.8,0.9,2.2,2.2,3.8,3.2L14.9,8.2z M16.1,8.8l-6.9,6.9c0.9,0.4,1.9,0.6,2.9,0.6c3.2,0,6.3-2.6,7.9-4.4C19.1,11.1,17.7,9.8,16.1,8.8z"/>
</svg>
