<svg fill="#333333" height="24" width="24" viewBox="0 0 24 24" xmlns="http://www.w3.org/2000/svg">
    <path d="M17,15.6l3,3v-4.1c0-0.3,0.2-0.5,0.5-0.5h1c0.3,0,0.5,0.2,0.5,0.5v7c0,0.1-0.1,0.3-0.1,0.4c-0.1,0.1-0.2,0.1-0.4,0.1h-7c-0.3,0-0.5-0.2-0.5-0.5v-1c0-0.3,0.2-0.5,0.5-0.5h4.1l-3-3h-0.1c-0.3,0-0.5-0.2-0.5-0.5v-1c0-0.3,0.2-0.5,0.5-0.5h1C16.8,15,17,15.2,17,15.6L17,15.6z M7,8.4l-3-3v4.1C4,9.8,3.8,10,3.5,10h-1C2.2,10,2,9.8,2,9.5v-7c0-0.1,0.1-0.3,0.1-0.4C2.2,2.1,2.4,2,2.5,2h7C9.8,2,10,2.2,10,2.5v1C10,3.8,9.8,4,9.5,4H5.4l3,3h0.1C8.8,7,9,7.2,9,7.5v1C9,8.8,8.8,9,8.5,9h-1C7.2,9,7,8.8,7,8.4L7,8.4z M11.5,9C11.2,9,11,8.8,11,8.5v-1C11,7.2,11.2,7,11.5,7h1C12.8,7,13,7.2,13,7.5v1C13,8.8,12.8,9,12.5,9H11.5z M7.5,13C7.2,13,7,12.8,7,12.5v-1C7,11.2,7.2,11,7.5,11h1C8.8,11,9,11.2,9,11.5v1C9,12.8,8.8,13,8.5,13H7.5z M15.5,13c-0.3,0-0.5-0.2-0.5-0.5v-1c0-0.3,0.2-0.5,0.5-0.5h1c0.3,0,0.5,0.2,0.5,0.5v1c0,0.3-0.2,0.5-0.5,0.5H15.5z M15.5,9C15.2,9,15,8.8,15,8.5v-1C15,7.2,15.2,7,15.5,7h1C16.8,7,17,7.2,17,7.5v1C17,8.8,16.8,9,16.5,9H15.5z M7.5,17C7.2,17,7,16.8,7,16.5v-1C7,15.2,7.2,15,7.5,15h1C8.8,15,9,15.2,9,15.5v1C9,16.8,8.8,17,8.5,17H7.5z M11.5,17c-0.3,0-0.5-0.2-0.5-0.5v-1c0-0.3,0.2-0.5,0.5-0.5h1c0.3,0,0.5,0.2,0.5,0.5v1c0,0.3-0.2,0.5-0.5,0.5H11.5z"/>
</svg>
