<svg fill="#555555" height="51" width="39" viewBox="0 0 39 51" xmlns="http://www.w3.org/2000/svg">
    <path d="M37.2,3.2c0,0.6-0.1,1.2-0.4,1.7C36.5,5.3,36,5.7,35.5,6c-0.5,0.2-1.1,0.3-1.7,0.2c-0.6-0.1-1.1-0.4-1.5-0.7c-0.4-0.4-0.7-0.9-0.9-1.5c-0.1-0.6-0.1-1.2,0.1-1.7c0.2-0.6,0.6-1,1-1.4c0.5-0.3,1-0.5,1.6-0.6c0.8,0,1.5,0.2,2.1,0.8C36.8,1.6,37.2,2.4,37.2,3.2z M20,38.1c-7.9,0-14.7-2.9-18.3-7.1c1.3,3.8,3.8,7.1,7.1,9.5c3.3,2.3,7.2,3.6,11.2,3.6s7.9-1.3,11.2-3.6c3.3-2.3,5.7-5.7,7.1-9.5C34.7,35.2,27.9,38.1,20,38.1z M20,10.4c7.9,0,14.7,2.9,18.3,7.1c-1.3-3.8-3.8-7.1-7.1-9.5C27.9,5.7,24,4.5,20,4.5S12.1,5.7,8.8,8.1c-3.3,2.3-5.7,5.7-7.1,9.5C5.3,13.3,12.2,10.4,20,10.4z M9.2,46.4c0,0.7-0.2,1.5-0.5,2.1c-0.4,0.6-0.9,1.1-1.6,1.5c-0.7,0.3-1.4,0.4-2.1,0.3c-0.7-0.1-1.4-0.4-1.9-0.9c-0.5-0.5-0.9-1.2-1.1-1.9C1.7,46.7,1.8,46,2,45.3c0.3-0.7,0.7-1.3,1.3-1.7c0.6-0.4,1.3-0.7,2-0.7c1,0,1.9,0.3,2.7,1C8.8,44.5,9.2,45.4,9.2,46.4L9.2,46.4z M2.6,9.5c-0.4,0-0.9-0.1-1.2-0.3C1,8.9,0.7,8.6,0.6,8.2C0.4,7.8,0.3,7.4,0.4,6.9c0.1-0.4,0.3-0.8,0.5-1.2C1.2,5.5,1.6,5.2,2,5.1C2.4,5,2.9,5,3.3,5.2C3.7,5.3,4,5.6,4.3,6c0.3,0.4,0.4,0.8,0.4,1.2c0,0.6-0.2,1.1-0.6,1.6C3.8,9.2,3.2,9.4,2.6,9.5L2.6,9.5z"/>
</svg>
