<svg fill="#FFFFFF" height="24" width="24" viewBox="0 0 24 24" xmlns="http://www.w3.org/2000/svg">
    <path d="M12.8,20.8C12.6,20.9,12.2,21,12,21c-0.2,0-0.6-0.1-0.8-0.2l-8.7-3.5C2.2,17.2,2,16.9,2,16.6v-1.2c0-0.3,0.2-0.4,0.5-0.3l9.1,3.6c0.3,0.1,0.7,0.1,0.9,0l9.1-3.6c0.3-0.1,0.5,0,0.5,0.3v1.2c0,0.3-0.2,0.6-0.5,0.7L12.8,20.8z M12.8,16.8C12.6,16.9,12.2,17,12,17c-0.2,0-0.6-0.1-0.8-0.2l-8.7-3.5C2.2,13.2,2,12.9,2,12.6v-1.1c0-0.3,0.2-0.4,0.5-0.3l9.1,3.6c0.3,0.1,0.7,0.1,0.9,0l9.1-3.6c0.3-0.1,0.5,0,0.5,0.3v1.2c0,0.3-0.2,0.6-0.5,0.7L12.8,16.8z M5.3,7.9C5,8,5,8.2,5.3,8.3l6.4,2.6c0.3,0.1,0.7,0.1,0.9,0L19,8.2c0.3-0.1,0.3-0.3,0-0.4l-6.4-2.5c-0.3-0.1-0.7-0.1-0.9,0L5.3,7.9z M12.1,13c-0.2,0-0.6-0.1-0.8-0.2L2.5,9.3C2.2,9.2,2,8.9,2,8.6v-1C2,7.3,2.2,7,2.5,6.9l8.8-3.5c0.3-0.1,0.6-0.2,0.8-0.2c0.2,0,0.6,0.1,0.8,0.2l8.6,3.4C21.8,6.8,22,7.1,22,7.4v1.2c0,0.3-0.2,0.6-0.5,0.7L13,12.8C12.7,12.9,12.3,13,12.1,13L12.1,13z"/>
</svg>
