<svg xmlns="http://www.w3.org/2000/svg" xmlns:xlink="http://www.w3.org/1999/xlink" width="24" height="24" viewBox="0 0 24 24">
  <defs>
    <path id="line-a01disabled-a" d="M19.1106095,5.94896282 L5.94896282,19.1106095 C5.98225039,19.2347863 6,19.3653203 6,19.5 C6,20.3284271 5.32842712,21 4.5,21 C3.67157288,21 3,20.3284271 3,19.5 C3,18.6715729 3.67157288,18 4.5,18 C4.63405922,18 4.76401091,18.0175864 4.88767386,18.0505781 L18.0505781,4.88767386 C18.0175864,4.76401091 18,4.63405922 18,4.5 C18,3.67157288 18.6715729,3 19.5,3 C20.3284271,3 21,3.67157288 21,4.5 C21,5.32842712 20.3284271,6 19.5,6 C19.3653203,6 19.2347863,5.98225039 19.1106095,5.94896282 Z M19.5,5 C19.7761424,5 20,4.77614237 20,4.5 C20,4.22385763 19.7761424,4 19.5,4 C19.2238576,4 19,4.22385763 19,4.5 C19,4.77614237 19.2238576,5 19.5,5 Z M4.5,20 C4.77614237,20 5,19.7761424 5,19.5 C5,19.2238576 4.77614237,19 4.5,19 C4.22385763,19 4,19.2238576 4,19.5 C4,19.7761424 4.22385763,20 4.5,20 Z"/>
  </defs>
  <g fill="none" fill-rule="evenodd">
    <mask id="line-a01disabled-b" fill="#fff">
      <use xlink:href="#line-a01disabled-a"/>
    </mask>
    <g fill="#333" mask="url(#line-a01disabled-b)" opacity=".3">
      <rect width="24" height="24"/>
    </g>
  </g>
</svg>
