<svg height="40" width="40" viewBox="0 0 40 40" xmlns="http://www.w3.org/2000/svg">
    <path opacity="0.5" fill="#626366" d="M20,11.3l-7.5,4.3v8.7l7.5,4.3l7.5-4.3v-8.7"/>
    <path opacity="0.5" fill="#2B94BF" d="M20,15.7l-7.5-4.3L5,15.7v8.7l7.5,4.3l7.5-4.3"/>
    <path opacity="0.5" fill="#84449A" d="M16.3,4.9L8.8,9.2v8.7l7.5,4.3l7.5-4.3V9.2"/>
    <path opacity="0.5" fill="#52B847" d="M23.8,22.2l-7.5-4.3l-7.5,4.3v8.7l7.5,4.3l7.5-4.3"/>
    <path opacity="0.5" fill="#ED1E24" d="M23.8,4.9l-7.5,4.3v8.7l7.5,4.3l7.5-4.3l0-8.7"/>
    <path opacity="0.5" fill="#F8991C" d="M27.5,11.3L20,15.7v8.7l7.5,4.3l7.5-4.3v-8.7"/>
</svg>
