<svg xmlns="http://www.w3.org/2000/svg" width="40" height="40" viewBox="0 0 40 40">
  <g fill="none" fill-rule="evenodd">
    <path fill="#626366" d="M20.005 11.348l-7.493 4.328v8.652l7.494 4.325 7.492-4.327v-8.652" opacity=".505"/>
    <path fill="#2B94BF" d="M20.005 15.68l-7.492-4.327L5.02 15.68v8.652l7.493 4.325 7.493-4.327" opacity=".498"/>
    <path fill="#84449A" d="M16.257 4.866L8.767 9.19v8.653l7.49 4.324 7.493-4.324V9.19" opacity=".505"/>
    <path fill="#52B847" d="M23.75 22.167l-7.492-4.325-7.49 4.325v8.653l7.49 4.325 7.494-4.325" opacity=".505"/>
    <path fill="#ED1E24" d="M23.757 4.86l-7.492 4.326v8.653l7.492 4.322 7.494-4.326.003-8.652" opacity=".505"/>
    <path fill="#F8991C" d="M27.504 11.348l-7.492 4.328v8.652l7.492 4.325 7.493-4.327v-8.652" opacity=".5"/>
  </g>
</svg>
