<svg height="36" width="75" viewBox="0 0 75 36" xmlns="http://www.w3.org/2000/svg">
    <polygon opacity="0.5" fill="#626366" points="18,9.3 10.5,13.7 10.5,22.3 18,26.7 25.5,22.3 25.5,13.7 "/>
    <polygon opacity="0.5" fill="#2B94BE" points="18,13.7 10.5,9.4 3,13.7 3,22.3 10.5,26.7 18,22.3 "/>
    <polygon opacity="0.5" fill="#84449A" points="14.3,2.9 6.8,7.2 6.8,15.8 14.3,20.2 21.8,15.8 21.8,7.2 "/>
    <polygon opacity="0.5" fill="#52B848" points="21.8,20.2 14.3,15.8 6.8,20.2 6.8,28.8 14.3,33.1 21.8,28.8 "/>
    <polygon opacity="0.5" fill="#EC1E24" points="21.8,2.9 14.3,7.2 14.3,15.8 21.8,20.2 29.3,15.8 29.3,7.2 "/>
    <polygon opacity="0.5" fill="#F7991C" points="25.5,9.3 18,13.7 18,22.3 25.5,26.7 33,22.3 33,13.7 "/>
    <path fill="#333333" d="M43.6,9.6v9.3h5.6V21h-8.1V9.6H43.6z M50.4,15.1c0.2-0.5,0.5-1,0.9-1.4s0.8-0.7,1.3-0.9c0.5-0.2,1.1-0.3,1.8-0.3s1.2,0.1,1.8,0.3s1,0.5,1.4,0.9c0.4,0.4,0.7,0.8,0.9,1.4c0.2,0.5,0.3,1.1,0.3,1.8s-0.1,1.3-0.3,1.8s-0.5,1-0.9,1.4c-0.4,0.4-0.8,0.7-1.4,0.9c-0.5,0.2-1.1,0.3-1.8,0.3s-1.2-0.1-1.8-0.3c-0.5-0.2-1-0.5-1.3-0.9s-0.7-0.8-0.9-1.4c-0.2-0.5-0.3-1.1-0.3-1.8S50.2,15.6,50.4,15.1z M52.5,17.8c0.1,0.3,0.2,0.6,0.3,0.8c0.2,0.2,0.4,0.5,0.6,0.6s0.6,0.2,1,0.2c0.4,0,0.7-0.1,1-0.2s0.5-0.3,0.6-0.6c0.2-0.3,0.3-0.5,0.3-0.8c0.1-0.3,0.1-0.6,0.1-1s0-0.7-0.1-1c-0.1-0.3-0.2-0.6-0.3-0.8c-0.2-0.2-0.4-0.4-0.6-0.6s-0.6-0.2-1-0.2c-0.4,0-0.7,0.1-1,0.2s-0.5,0.4-0.6,0.6c-0.2,0.2-0.3,0.5-0.3,0.8c-0.1,0.3-0.1,0.6-0.1,1S52.4,17.5,52.5,17.8z M62.3,12.7v1.5h0c0.1-0.3,0.2-0.5,0.4-0.7c0.2-0.2,0.4-0.4,0.6-0.6c0.2-0.2,0.5-0.3,0.8-0.4c0.3-0.1,0.5-0.1,0.8-0.1c0.2,0,0.3,0,0.5,0.1v2.1c-0.1,0-0.2,0-0.4-0.1c-0.2,0-0.3,0-0.4,0c-0.4,0-0.8,0.1-1.1,0.2c-0.3,0.1-0.5,0.3-0.7,0.6c-0.2,0.2-0.3,0.5-0.4,0.8c-0.1,0.3-0.1,0.7-0.1,1V21h-2.3v-8.3H62.3z M73.7,21.6c-0.1,0.4-0.3,0.8-0.6,1.2c-0.3,0.4-0.7,0.7-1.3,0.9c-0.6,0.3-1.3,0.4-2.3,0.4c-0.4,0-0.8-0.1-1.2-0.2c-0.4-0.1-0.8-0.3-1.2-0.5c-0.3-0.2-0.6-0.5-0.9-0.8s-0.4-0.7-0.4-1.2h2.3c0.1,0.4,0.3,0.7,0.6,0.9c0.3,0.2,0.7,0.2,1.1,0.2c0.6,0,1.1-0.2,1.4-0.6c0.3-0.4,0.4-0.9,0.4-1.5v-1.1h0c-0.2,0.4-0.6,0.8-1,1s-0.9,0.3-1.4,0.3c-0.6,0-1.2-0.1-1.6-0.3c-0.4-0.2-0.8-0.5-1.1-0.9s-0.5-0.8-0.6-1.3c-0.1-0.5-0.2-1-0.2-1.6c0-0.5,0.1-1,0.2-1.5c0.2-0.5,0.4-0.9,0.7-1.3c0.3-0.4,0.7-0.7,1.1-0.9c0.4-0.2,1-0.3,1.5-0.3c0.5,0,1,0.1,1.4,0.3c0.4,0.2,0.8,0.5,1,1h0v-1.1h2.2v7.7C73.9,20.8,73.8,21.2,73.7,21.6z M70.6,18.9c0.2-0.1,0.4-0.3,0.6-0.5c0.2-0.2,0.3-0.5,0.4-0.7c0.1-0.3,0.1-0.6,0.1-0.9c0-0.3,0-0.7-0.1-1s-0.2-0.6-0.3-0.8c-0.1-0.2-0.3-0.4-0.6-0.6c-0.2-0.1-0.6-0.2-0.9-0.2c-0.3,0-0.6,0.1-0.8,0.2s-0.4,0.3-0.6,0.5c-0.2,0.2-0.3,0.5-0.3,0.8c-0.1,0.3-0.1,0.6-0.1,0.9c0,0.3,0,0.6,0.1,0.9s0.2,0.6,0.3,0.8s0.3,0.4,0.6,0.6c0.2,0.1,0.5,0.2,0.9,0.2C70.1,19,70.4,19,70.6,18.9z"/>
</svg>
