<svg fill="#333333" height="24" width="24" viewBox="0 0 24 24" xmlns="http://www.w3.org/2000/svg">
    <path d="M21.4,11.3l-2.4-3c-0.1-0.2-0.1-0.4,0-0.6l1.6-2.9c0-0.1,0.1-0.2,0.1-0.3c0-0.3-0.3-0.5-0.5-0.5C13.4,4.5,9.4,4.8,8,4.9L7.9,4.4C7.9,4.2,7.7,4,7.4,4l-1,0.1C6.1,4.2,5.9,4.4,6,4.7l1.6,11L2,18.5L9,22l7-3.5l-6.5-3.3l-0.3-2.3l11.9-0.9c0.1,0,0.2,0,0.3-0.1C21.6,11.8,21.6,11.5,21.4,11.3z M13.3,18.5L9,20.7l-4.3-2.2l3-1.5l0.2,1.6C8,18.8,8.2,19,8.5,19l1-0.1c0.3,0,0.5-0.3,0.4-0.6l-0.2-1.6L13.3,18.5z M9,12.1L8.1,5.7l11.5-0.8l-1.3,2.4c-0.3,0.5-0.2,1,0.1,1.4l2.1,2.5L9,12.1z"/>
</svg>
