<?xml version="1.0" encoding="UTF-8"?>
<svg width="24px" height="24px" viewBox="0 0 24 24" version="1.1" xmlns="http://www.w3.org/2000/svg" xmlns:xlink="http://www.w3.org/1999/xlink">
    <!-- Generator: Sketch 47.1 (45422) - http://www.bohemiancoding.com/sketch -->
    <title>Icon/tool/map-labels-a02</title>
    <desc>Created with Sketch.</desc>
    <defs></defs>
    <g id="2.-Core" stroke="none" stroke-width="1" fill="none" fill-rule="evenodd">
        <g id="Core/Icons" transform="translate(-740.000000, -960.000000)" fill-rule="nonzero" fill="#0E71B3">
            <g id="Layer-Tools" transform="translate(700.000000, 880.000000)">
                <g id="Icon/tool/map-labels-a02" transform="translate(40.000000, 80.000000)">
                    <path d="M6.39148116,4.147442 L7.38174923,4.0082689 C7.6552042,3.96983731 7.90803822,4.16036141 7.94646981,4.43381638 L9.89489322,18.2975693 C9.93332482,18.5710243 9.74280072,18.8238583 9.46934574,18.8622899 L8.47907767,19.001463 C8.2056227,19.0398946 7.95278868,18.8493705 7.91435709,18.5759155 L5.96593367,4.71216259 C5.92750208,4.43870761 6.11802618,4.18587359 6.39148116,4.147442 L6.39148116,4.147442 Z M13.3167184,18.5 L9,16.3416408 L4.68328157,18.5 L9,20.6583592 L13.3167184,18.5 Z M9,15 L16,18.5 L9,22 L2,18.5 L9,15 Z M7.89847825,5.7380198 L8.69974113,12.1481229 L20.4544937,11.3107129 L18.4030131,8.76404693 C18.0710478,8.351952 18.022,7.77976263 18.2789887,7.3171829 L19.6202226,4.90296136 L7.89847825,5.7380198 Z M20.1159972,4.06561483 C20.3914415,4.04599214 20.6306405,4.25337654 20.6502632,4.52882084 C20.6571593,4.62562214 20.6357358,4.72233825 20.5886058,4.80717227 L18.9783146,7.70569718 C18.8794728,7.88361246 18.8983373,8.10368529 19.0260163,8.26218334 L21.4373236,11.2555308 C21.6105558,11.4705778 21.5766583,11.7853403 21.3616114,11.9585726 C21.2822171,12.022529 21.1851692,12.060687 21.0834766,12.0679316 L8.47286822,12.9663128 C8.20773619,12.9852008 7.97416819,12.7933456 7.94119927,12.5295942 L7.06540997,5.52327974 C7.03115872,5.24926977 7.22552157,4.99937468 7.49953154,4.96512343 C7.50540121,4.96438973 11.7108898,4.66455352 20.1159972,4.06561483 Z" id="Icon"></path>
                </g>
            </g>
        </g>
    </g>
</svg>