<svg xmlns="http://www.w3.org/2000/svg" width="24" height="24" viewBox="0 0 24 24">
  <path fill="#0E71B3" fill-rule="evenodd" d="M11.00006,10.9999143 L8.50006,10.9999143 C8.22391763,10.9999143 8.00006,11.2237719 8.00006,11.4999143 L8.00006,12.4998857 C8.00006,12.7760281 8.22391763,12.9998857 8.50006,12.9998857 L11.00006,12.9998857 L11.00006,15.4998857 C11.00006,15.7760281 11.2239176,15.9998857 11.50006,15.9998857 L12.5,15.9998857 C12.7761424,15.9998857 13,15.7760281 13,15.4998857 L13,15.4998857 L13,12.9998857 L15.5,12.9998857 C15.7761424,12.9998857 16,12.7760281 16,12.4998857 L16,11.4999143 C16,11.2237719 15.7761424,10.9999143 15.5,10.9999143 L13,10.9999143 L13,8.49991429 C13,8.22377191 12.7761424,7.99991429 12.5,7.99991429 L12.5,7.99991429 L11.50006,7.99991429 C11.2239176,7.99991429 11.00006,8.22377191 11.00006,8.49991429 L11.00006,10.9999143 Z M3.2882,13.9048 C3.2882,13.3348 2.97353333,12.7328 2.0002,12.6998 L2.0002,11.3008 C2.97353333,11.2678 3.2882,10.6648 3.2882,10.0958 C3.2882,9.0858 3.13886667,8.4508 3.13886667,7.3118 C3.13886667,5.5708 3.73797778,4.9998 5.0562,4.9998 L6.0002,4.9998 L6.0002,6.2708 L5.71486667,6.2708 C5.10153333,6.2708 4.92108889,6.5148 4.92108889,7.4098 C4.92108889,8.2728 4.98153333,9.1028 4.98153333,10.0638 C4.98153333,11.3008 4.62153333,11.7728 3.87308889,11.9678 L3.87308889,12.0328 C4.62153333,12.2288 4.98153333,12.6998 4.98153333,13.9378 C4.98153333,14.9308 4.92108889,15.7118 4.92108889,16.5918 C4.92108889,17.4868 5.10153333,17.7308 5.71486667,17.7308 L6.0002,17.7308 L6.0002,18.9998 L5.0562,18.9998 C3.73797778,18.9998 3.13886667,18.4468 3.13886667,16.6888 C3.13886667,15.5328 3.2882,14.9308 3.2882,13.9048 Z M18.2844444,17.73 C18.9137778,17.73 19.0782222,17.486 19.0782222,16.591 C19.0782222,15.711 19.0186667,14.931 19.0186667,13.937 C19.0186667,12.7 19.3777778,12.228 20.1271111,12.032 L20.1271111,11.968 C19.3777778,11.772 19.0186667,11.3 19.0186667,10.063 C19.0186667,9.103 19.0782222,8.272 19.0782222,7.409 C19.0782222,6.514 18.9137778,6.27 18.2844444,6.27 L18,6.27 L18,5 L18.9431111,5 C20.2622222,5 20.8604444,5.57 20.8604444,7.312 C20.8604444,8.451 20.7111111,9.085 20.7111111,10.096 C20.7111111,10.665 21.0257778,11.268 22,11.3 L22,12.7 C21.0257778,12.732 20.7111111,13.334 20.7111111,13.904 C20.7111111,14.931 20.8604444,15.532 20.8604444,16.688 C20.8604444,18.446 20.2622222,19 18.9431111,19 L18,19 L18,17.73 L18.2844444,17.73 Z"/>
</svg>
