<svg opacity="0.3" fill="#333333" height="24" width="24" viewBox="0 0 24 24" xmlns="http://www.w3.org/2000/svg">
    <path d="M3.3,13.9c0-0.6-0.3-1.2-1.3-1.2v-1.4c1,0,1.3-0.6,1.3-1.2c0-1-0.1-1.6-0.1-2.8C3.1,5.6,3.7,5,5.1,5H6v1.3H5.7c-0.6,0-0.8,0.2-0.8,1.1C4.9,8.3,5,9.1,5,10.1c0,1.2-0.4,1.7-1.1,1.9V12C4.6,12.2,5,12.7,5,13.9c0,1-0.1,1.8-0.1,2.7c0,0.9,0.2,1.1,0.8,1.1H6V19H5.1c-1.3,0-1.9-0.6-1.9-2.3C3.1,15.5,3.3,14.9,3.3,13.9z M17.2,15c0,0.7-0.6,1.2-1.2,1.2c-0.7,0-1.2-0.6-1.2-1.2s0.6-1.2,1.2-1.2C16.7,13.8,17.2,14.3,17.2,15z M13.2,15c0,0.7-0.6,1.2-1.2,1.2s-1.2-0.6-1.2-1.2s0.6-1.2,1.2-1.2S13.2,14.3,13.2,15z M9.2,15c0,0.7-0.6,1.2-1.2,1.2S6.8,15.7,6.8,15s0.6-1.2,1.2-1.2S9.2,14.3,9.2,15z M18.3,17.7c0.6,0,0.8-0.2,0.8-1.1c0-0.9-0.1-1.7-0.1-2.7c0-1.2,0.4-1.7,1.1-1.9V12c-0.7-0.2-1.1-0.7-1.1-1.9c0-1,0.1-1.8,0.1-2.7c0-0.9-0.2-1.1-0.8-1.1H18V5h0.9c1.3,0,1.9,0.6,1.9,2.3c0,1.1-0.1,1.8-0.1,2.8c0,0.6,0.3,1.2,1.3,1.2v1.4c-1,0-1.3,0.6-1.3,1.2c0,1,0.1,1.6,0.1,2.8c0,1.8-0.6,2.3-1.9,2.3H18v-1.3H18.3z"/>
</svg>
