<svg xmlns="http://www.w3.org/2000/svg" width="24" height="24" viewBox="0 0 24 24">
  <path fill="#333" d="M3.2882,15.3605143 C3.2882,14.9533714 2.97353333,14.5233714 2.0002,14.4998 L2.0002,13.5005143 C2.97353333,13.4769429 3.2882,13.0462286 3.2882,12.6398 C3.2882,11.9183714 3.13886667,11.4648 3.13886667,10.6512286 C3.13886667,9.40765714 3.73797778,8.9998 5.0562,8.9998 L6.0002,8.9998 L6.0002,9.90765714 L5.71486667,9.90765714 C5.10153333,9.90765714 4.92108889,10.0819429 4.92108889,10.7212286 C4.92108889,11.3376571 4.98153333,11.9305143 4.98153333,12.6169429 C4.98153333,13.5005143 4.62153333,13.8376571 3.87308889,13.9769429 L3.87308889,14.0233714 C4.62153333,14.1633714 4.98153333,14.4998 4.98153333,15.3840857 C4.98153333,16.0933714 4.92108889,16.6512286 4.92108889,17.2798 C4.92108889,17.9190857 5.10153333,18.0933714 5.71486667,18.0933714 L6.0002,18.0933714 L6.0002,18.9998 L5.0562,18.9998 C3.73797778,18.9998 3.13886667,18.6048 3.13886667,17.3490857 C3.13886667,16.5233714 3.2882,16.0933714 3.2882,15.3605143 Z M18.2844444,18.0928571 C18.9137778,18.0928571 19.0782222,17.9185714 19.0782222,17.2792857 C19.0782222,16.6507143 19.0186667,16.0935714 19.0186667,15.3835714 C19.0186667,14.5 19.3777778,14.1628571 20.1271111,14.0228571 L20.1271111,13.9771429 C19.3777778,13.8371429 19.0186667,13.5 19.0186667,12.6164286 C19.0186667,11.9307143 19.0782222,11.3371429 19.0782222,10.7207143 C19.0782222,10.0814286 18.9137778,9.90714286 18.2844444,9.90714286 L18,9.90714286 L18,9 L18.9431111,9 C20.2622222,9 20.8604444,9.40714286 20.8604444,10.6514286 C20.8604444,11.465 20.7111111,11.9178571 20.7111111,12.64 C20.7111111,13.0464286 21.0257778,13.4771429 22,13.5 L22,14.5 C21.0257778,14.5228571 20.7111111,14.9528571 20.7111111,15.36 C20.7111111,16.0935714 20.8604444,16.5228571 20.8604444,17.3485714 C20.8604444,18.6042857 20.2622222,19 18.9431111,19 L18,19 L18,18.0928571 L18.2844444,18.0928571 Z M7.73205081,18.7224319 L8.5,13.3923048 L11.9641016,15.3923048 L7.73205081,18.7224319 Z M8.5,13.3923048 L14.5,3 L17.9641016,5 L11.9641016,15.3923048 L8.5,13.3923048 Z M8.40519641,17.5565095 L11.0745276,15.4560593 L8.88957403,14.1945758 L8.40519641,17.5565095 Z"/>
</svg>
