<svg xmlns="http://www.w3.org/2000/svg" width="24" height="24" viewBox="0 0 24 24">
  <path fill="#333" fill-rule="evenodd" d="M11.00006,10.9999143 L8.50006,10.9999143 C8.22391763,10.9999143 8.00006,11.2237719 8.00006,11.4999143 L8.00006,12.4998857 C8.00006,12.7760281 8.22391763,12.9998857 8.50006,12.9998857 L11.00006,12.9998857 L11.00006,15.4998857 C11.00006,15.7760281 11.2239176,15.9998857 11.50006,15.9998857 L12.5,15.9998857 C12.7761424,15.9998857 13,15.7760281 13,15.4998857 L13,12.9998857 L15.5,12.9998857 C15.7761424,12.9998857 16,12.7760281 16,12.4998857 L16,11.4999143 C16,11.2237719 15.7761424,10.9999143 15.5,10.9999143 L13,10.9999143 L13,8.49991429 C13,8.22377191 12.7761424,7.99991429 12.5,7.99991429 L11.50006,7.99991429 C11.2239176,7.99991429 11.00006,8.22377191 11.00006,8.49991429 L11.00006,10.9999143 Z M3.28801288,13.9048728 C3.28801288,13.3348809 2.97334307,12.7328895 2,12.69989 L2,11.30091 C2.97334307,11.2679105 3.28801288,10.6649191 3.28801288,10.0959272 C3.28801288,9.08594163 3.13867805,8.4509507 3.13867805,7.31196697 C3.13867805,5.57099184 3.73779516,5 5.05603056,5 L6.00004,5 L6.00004,6.27098184 L5.71470381,6.27098184 C5.10136435,6.27098184 4.9209181,6.51497836 4.9209181,7.40996557 C4.9209181,8.27295324 4.98136315,9.10294139 4.98136315,10.0639277 C4.98136315,11.30091 4.62135955,11.7729032 3.87290762,11.9679005 L3.87290762,12.0328995 C4.62135955,12.2288967 4.98136315,12.69989 4.98136315,13.9378723 C4.98136315,14.9308581 4.9209181,15.711847 4.9209181,16.5918344 C4.9209181,17.4868216 5.10136435,17.7308181 5.71470381,17.7308181 L6.00004,17.7308181 L6.00004,18.9998 L5.05603056,18.9998 C3.73779516,18.9998 3.13867805,18.4468079 3.13867805,16.688833 C3.13867805,15.5328495 3.28801288,14.9308581 3.28801288,13.9048728 Z M18.2844073,17.7300181 C18.9137469,17.7300181 19.078193,17.4860216 19.078193,16.5910344 C19.078193,15.711047 19.0186369,14.9310581 19.0186369,13.9370723 C19.0186369,12.70009 19.3777516,12.2280967 20.1270924,12.0320995 L20.1270924,11.9681005 C19.3777516,11.7721033 19.0186369,11.30011 19.0186369,10.0631277 C19.0186369,9.10314138 19.078193,8.27215325 19.078193,7.40916558 C19.078193,6.51417837 18.9137469,6.27018185 18.2844073,6.27018185 L17.99996,6.27018185 L17.99996,5.0002 L18.9430805,5.0002 C20.2622048,5.0002 20.860433,5.57019185 20.860433,7.31216697 C20.860433,8.4511507 20.7110982,9.08514164 20.7110982,10.0961272 C20.7110982,10.6651191 21.025768,11.2681105 22,11.30011 L22,12.70009 C21.025768,12.7320895 20.7110982,13.3340809 20.7110982,13.9040728 C20.7110982,14.9310581 20.860433,15.5320495 20.860433,16.688033 C20.860433,18.4460079 20.2622048,19 18.9430805,19 L17.99996,19 L17.99996,17.7300181 L18.2844073,17.7300181 Z"/>
</svg>
