<svg fill="#333333" width="24" height="24" viewBox="0 0 24 24" xmlns="http://www.w3.org/2000/svg">
    <path d="M5.3,13.4C5.3,13,5,12.5,4,12.5v-1c1,0,1.3-0.5,1.3-0.9c0-0.7-0.1-1.2-0.1-2C5.1,7.4,5.7,7,7.1,7H8v0.9H7.7c-0.6,0-0.8,0.2-0.8,0.8C6.9,9.3,7,9.9,7,10.6c0,0.9-0.4,1.2-1.1,1.4v0C6.6,12.2,7,12.5,7,13.4c0,0.7-0.1,1.3-0.1,1.9c0,0.6,0.2,0.8,0.8,0.8H8V17H7.1c-1.3,0-1.9-0.4-1.9-1.7C5.1,14.5,5.3,14.1,5.3,13.4z M16.3,16.1c0.6,0,0.8-0.2,0.8-0.8c0-0.6-0.1-1.2-0.1-1.9c0-0.9,0.4-1.2,1.1-1.4v0c-0.7-0.1-1.1-0.5-1.1-1.4c0-0.7,0.1-1.3,0.1-1.9c0-0.6-0.2-0.8-0.8-0.8H16V7h0.9c1.3,0,1.9,0.4,1.9,1.7c0,0.8-0.1,1.3-0.1,2c0,0.4,0.3,0.8,1.3,0.9v1c-1,0-1.3,0.5-1.3,0.9c0,0.7,0.1,1.2,0.1,2c0,1.3-0.6,1.7-1.9,1.7H16v-0.9H16.3z M16.2,14c0,0.7-0.6,1.2-1.2,1.2c-0.7,0-1.2-0.6-1.2-1.2c0-0.7,0.6-1.2,1.2-1.2C15.7,12.8,16.2,13.3,16.2,14z M13.2,14c0,0.7-0.6,1.2-1.2,1.2c-0.7,0-1.2-0.6-1.2-1.2c0-0.7,0.6-1.2,1.2-1.2C12.7,12.8,13.2,13.3,13.2,14z M10.2,14c0,0.7-0.6,1.2-1.2,1.2c-0.7,0-1.2-0.6-1.2-1.2c0-0.7,0.6-1.2,1.2-1.2C9.7,12.8,10.2,13.3,10.2,14z M11.7,19H20c0.6,0,1-0.4,1-1V6c0-0.6-0.4-1-1-1H4C3.4,5,3,5.4,3,6v12c0,0.6,0.4,1,1,1h2.4l2.6,2.7L11.7,19z M4,4h16c1.1,0,2,0.9,2,2v12c0,1.1-0.9,2-2,2h-7.9l-3,3.1L6,20H4c-1.1,0-2-0.9-2-2V6C2,4.9,2.9,4,4,4z"/>
</svg>
