<svg fill="#333333" width="24" height="24" viewBox="0 0 24 24" xmlns="http://www.w3.org/2000/svg">
    <path d="M8.8,2L4.3,7.9l1.6,0.7l-2.7,3.5l1.6,0.7L2,16.2L8.2,19l7,3l4.5-5.9l-1.6-0.7l2.7-3.5l-1.6-0.7L22,7.8L15.8,5v0L8.8,2z M5.5,7.6l3.6-4.7l5.4,2.4l-1.8,2.3l-0.4,0.6l-4.7-2L6.3,8L5.5,7.6z M14.6,9.2l-1.6-0.7L13.5,8l1.8-2.3L20.8,8l-2.2,2.9L14.6,9.2z M7.1,8.3L8,7.1l3.9,1.7L11,10L7.1,8.3z M4.4,11.8l2.2-2.9l3.9,1.7l1.6,0.7l-0.4,0.6l-0.5,0.6l-4.7-2l-1.3,1.8L4.4,11.8z M11.7,10.3l0.9-1.2l0.8,0.3l-0.9,1.2L11.7,10.3z M13.3,11l0.9-1.2l3.9,1.7l-0.9,1.2L13.3,11z M5.9,12.5l0.9-1.2l3.9,1.7l-0.9,1.2L5.9,12.5z M11.9,12.8l0.4-0.6l0.4-0.6l4.7,2l1.3-1.8l0.8,0.3l-2.2,2.9l-4.7-2l0,0L11.9,12.8z M3.2,16l2.2-2.9l3.9,1.7l1.6,0.7l-2.2,2.9L3.2,16z M10.6,14.5l0.9-1.2l0.8,0.3l-0.9,1.2L10.6,14.5z M12.1,15.2L13,14l3.9,1.7L16,16.9L12.1,15.2z M9.5,18.7l1.8-2.3l0.5-0.6l4.7,2l1.3-1.8l0.8,0.3l-3.6,4.7L9.5,18.7z"/>
</svg>
