<?xml version="1.0" encoding="UTF-8"?>
<svg width="24px" height="24px" viewBox="0 0 24 24" version="1.1" xmlns="http://www.w3.org/2000/svg" xmlns:xlink="http://www.w3.org/1999/xlink">
    <!-- Generator: Sketch 46.2 (44496) - http://www.bohemiancoding.com/sketch -->
    <title>Icon/outline/on</title>
    <desc>Created with Sketch.</desc>
    <defs>
        <path d="M8.77125452,2.00013535 L4.27864934,7.8616279 L5.83488777,8.53839646 L3.13932467,12.0542092 L4.6955631,12.7309777 L2,16.248144 L8.22585225,18.9545415 L15.2289252,22 L19.7215304,16.139861 L18.1652919,15.4630924 L20.8617536,11.9459262 L19.3046166,11.2691576 L22.0001797,7.75334493 L15.7761245,5.04627067 L15.7761245,5.0455939 L8.77125452,2.00013535 Z M5.5069276,7.61325384 L9.10011321,2.92460121 L14.5469477,5.29329119 L12.7499057,7.6376175 L12.3006451,8.22369908 L7.63282836,6.19407015 L6.28414829,7.95163812 L5.5069276,7.61325384 Z M14.6359013,9.2395287 L13.0796629,8.56276013 L13.5298219,7.97600179 L15.3259655,5.63235224 L20.7728,8.00104222 L18.5264974,10.9314501 L14.6359013,9.2395287 Z M7.06316603,8.2900224 L7.96078854,7.11853601 L11.8513846,8.81045743 L10.9537621,9.98194381 L7.06316603,8.2900224 Z M4.36760293,11.8065119 L6.61390551,8.87610398 L10.5045016,10.5680254 L12.0598415,11.244794 L11.6114795,11.8315523 L11.1613205,12.4176339 L6.49350369,10.3873282 L5.14482362,12.1448961 L4.36760293,11.8065119 Z M11.7318813,10.3203281 L12.6304024,9.14816494 L13.4085216,9.48722599 L12.5100005,10.6587124 L11.7318813,10.3203281 Z M13.2872212,10.9970967 L14.1857423,9.82493351 L18.0772369,11.5175317 L17.1787158,12.6890181 L13.2872212,10.9970967 Z M5.92294284,12.4839572 L6.82146387,11.311794 L10.7129585,13.0030387 L9.81443744,14.1752018 L5.92294284,12.4839572 Z M11.9403382,12.7560182 L12.3895987,12.1692598 L12.8388592,11.583855 L17.5075745,13.6134839 L18.8553561,11.855916 L19.6325768,12.1936235 L17.3871727,15.1240314 L12.7184574,13.0944024 L12.7184574,13.0944024 L11.9403382,12.7560182 Z M3.22737973,15.9997699 L5.47458084,13.0700388 L9.36517692,14.7619602 L10.9205168,15.4387288 L8.67511276,18.3691366 L3.22737973,15.9997699 Z M10.5925567,14.5135861 L11.4910777,13.3420997 L12.2691969,13.680484 L11.3706759,14.8519704 L10.5925567,14.5135861 Z M12.1478966,15.1903547 L13.0464176,14.0188683 L16.9370137,15.7107897 L16.0384926,16.8829529 L12.1478966,15.1903547 Z M9.45323198,18.7068442 L11.2493755,16.3631946 L11.6995346,15.7764363 L16.3682499,17.8074187 L17.7169299,16.0484972 L18.4941506,16.3875583 L14.9000665,21.0755341 L9.45323198,18.7068442 Z" id="path-1"></path>
    </defs>
    <g id="2.-Core" stroke="none" stroke-width="1" fill="none" fill-rule="evenodd">
        <g id="Core/Icons" transform="translate(-1100.000000, -440.000000)">
            <g id="Visibility" transform="translate(1060.000000, 400.000000)">
                <g id="Icon/outline/on" transform="translate(40.000000, 40.000000)">
                    <mask id="mask-2" fill="white">
                        <use xlink:href="#path-1"></use>
                    </mask>
                    <g id="Icon"></g>
                    <g id="Color/a-01-aaa" mask="url(#mask-2)" fill-rule="evenodd" fill="#333333">
                        <g transform="translate(12.000000, 12.000000) rotate(90.000000) translate(-12.000000, -12.000000) " id="Rectangle">
                            <rect x="0" y="0" width="24" height="24"></rect>
                        </g>
                    </g>
                </g>
            </g>
        </g>
    </g>
</svg>