<svg fill="#333333" width="24" height="24" viewBox="0 0 24 24" xmlns="http://www.w3.org/2000/svg">
    <path opacity="0.2" d="M15.6,12l3.6-2.3L12,5.1L4.8,9.7L8.4,12l-3.6,2.3l7.2,4.6l7.2-4.6L15.6,12z"/>
    <path d="M22.8,12l-3-1.9c0.1-0.1,0.1-0.2,0.1-0.4c0-0.2-0.1-0.5-0.3-0.6l-7.2-4.6c-0.2-0.1-0.5-0.1-0.8,0L4.4,9.1C4.2,9.3,4.1,9.5,4.1,9.7c0,0.1,0,0.3,0.1,0.4l-3,1.9l3,1.9c-0.1,0.1-0.1,0.2-0.1,0.4c0,0.2,0.1,0.5,0.3,0.6l7.2,4.6c0.1,0.1,0.2,0.1,0.4,0.1s0.3,0,0.4-0.1l7.2-4.6c0.2-0.1,0.3-0.4,0.3-0.6c0-0.1,0-0.3-0.1-0.4L22.8,12z M19.3,13.5L16.9,12l2.4-1.5l2.4,1.5L19.3,13.5z M12,6l5.9,3.7l-2.3,1.5l-3.2-2c-0.2-0.1-0.5-0.1-0.8,0l-3.2,2L6.1,9.7L12,6z M12,10.5l2.3,1.5L12,13.5L9.7,12L12,10.5z M11.6,14.9c0.1,0.1,0.2,0.1,0.4,0.1s0.3,0,0.4-0.1l3.2-2l2.3,1.5L12,18l-5.9-3.7l2.3-1.5L11.6,14.9z M4.7,10.5L7.1,12l-2.4,1.5L2.3,12L4.7,10.5z"/>
</svg>
