<?xml version="1.0" encoding="UTF-8"?>
<svg width="24px" height="24px" viewBox="0 0 24 24" version="1.1" xmlns="http://www.w3.org/2000/svg" xmlns:xlink="http://www.w3.org/1999/xlink">
    <!-- Generator: Sketch 48.1 (47250) - http://www.bohemiancoding.com/sketch -->
    <title>Icon/menu/pipeline</title>
    <desc>Created with Sketch.</desc>
    <defs></defs>
    <g id="Core/Icons" stroke="none" stroke-width="1" fill="none" fill-rule="evenodd" transform="translate(-420.000000, -1060.000000)">
        <g id="Menu" transform="translate(60.000000, 774.000000)" fill="#333333">
            <g id="Icon/menu/pipeline-a01" transform="translate(360.000000, 286.000000)">
                <path d="M1,17 L23,17 L23,18 L1,18 L1,17 Z M1,15 L17,15 L17,16 L1,16 L1,15 Z M1,13 L13,13 L13,14 L1,14 L1,13 Z M1,11 L11,11 L11,12 L1,12 L1,11 Z M1,9 L6,9 L6,10 L1,10 L1,9 Z M1,7 L13,7 L13,8 L1,8 L1,7 Z" id="Icon"></path>
            </g>
        </g>
    </g>
</svg>