<svg fill="#0E71B3" width="24" height="24" viewBox="0 0 24 24" xmlns="http://www.w3.org/2000/svg">
    <polygon opacity="0.2" points="11,4.5 13.4,4.5 19.7,9.3 20.1,11.5 17.6,19.4 16.3,20.5 7.8,20.5 6.1,19.1 3.8,11.3 4.6,9.3 "/>
    <path d="M3,11.4c-0.6-0.2-1-0.8-1-1.4c0-0.8,0.7-1.5,1.5-1.5c0.2,0,0.4,0,0.6,0.1l6.4-4.7c0-0.1-0.1-0.3-0.1-0.4C10.5,2.7,11.2,2,12,2s1.5,0.7,1.5,1.5c0,0.1,0,0.2,0,0.3l6.6,4.8c0.1,0,0.3-0.1,0.4-0.1c0.8,0,1.5,0.7,1.5,1.5c0,0.7-0.5,1.3-1.1,1.5l-2.5,7.8c0.4,0.3,0.7,0.7,0.7,1.2c0,0.8-0.7,1.5-1.5,1.5c-0.7,0-1.2-0.4-1.4-1H7.9c-0.2,0.6-0.8,1-1.4,1C5.7,22,5,21.3,5,20.5c0-0.5,0.2-0.9,0.6-1.2L3,11.4z M4.1,11.4L6.6,19c0.6,0,1.2,0.4,1.4,1h8.2c0.2-0.5,0.7-0.9,1.3-1l2.5-7.6C19.4,11.1,19,10.6,19,10c0-0.3,0.1-0.6,0.2-0.8L13,4.6C12.7,4.9,12.4,5,12,5c-0.3,0-0.6-0.1-0.8-0.3L4.8,9.3C4.9,9.5,5,9.8,5,10C5,10.6,4.6,11.2,4.1,11.4z M12,4c0.3,0,0.5-0.2,0.5-0.5S12.3,3,12,3s-0.5,0.2-0.5,0.5S11.7,4,12,4z M6.5,21C6.8,21,7,20.8,7,20.5S6.8,20,6.5,20S6,20.2,6,20.5S6.2,21,6.5,21z M17.5,21c0.3,0,0.5-0.2,0.5-0.5S17.8,20,17.5,20S17,20.2,17,20.5S17.2,21,17.5,21z M20.5,10.5c0.3,0,0.5-0.2,0.5-0.5s-0.2-0.5-0.5-0.5S20,9.7,20,10S20.2,10.5,20.5,10.5z M3.5,10.5C3.8,10.5,4,10.3,4,10S3.8,9.5,3.5,9.5S3,9.7,3,10S3.2,10.5,3.5,10.5z"/>
</svg>
