<?xml version="1.0" encoding="UTF-8"?>
<svg width="24px" height="24px" viewBox="0 0 24 24" version="1.1" xmlns="http://www.w3.org/2000/svg" xmlns:xlink="http://www.w3.org/1999/xlink">
    <!-- Generator: Sketch 47.1 (45422) - http://www.bohemiancoding.com/sketch -->
    <title>Icon/tool/search</title>
    <desc>Created with Sketch.</desc>
    <defs></defs>
    <g id="2.-Core" stroke="none" stroke-width="1" fill="none" fill-rule="evenodd">
        <g id="Core/Icons" transform="translate(-460.000000, -920.000000)" fill-rule="nonzero" fill="#333333">
            <g id="Tools" transform="translate(220.000000, 880.000000)">
                <g id="Icon/tool/search-a01" transform="translate(240.000000, 40.000000)">
                    <path d="M19.7949175,18.5164466 C20.1475808,18.8691099 20.1475808,19.4408901 19.7949175,19.7935534 C19.4422542,20.1462167 18.8704741,20.1462167 18.5178107,19.7935534 L14.3361262,15.6118688 C11.7303179,17.5733847 8.03742024,17.2687463 5.78838847,14.8610072 C3.42617523,12.3320996 3.49339929,8.38599565 5.94037954,5.9390154 C8.38735979,3.49203516 12.3334638,3.42481109 14.8623713,5.78702434 C17.2701105,8.03605611 17.5747489,11.7289538 15.613233,14.3347621 L19.7949175,18.5164466 Z M10.5013641,5.9 C7.96092603,5.9 5.90136411,7.95941842 5.90136318,10.4990225 C5.90632687,13.0379421 7.96327866,15.095037 10.5013641,15.1 C13.041874,15.1 15.1013641,13.0405098 15.1013641,10.5 C15.1013641,7.95949015 13.041874,5.9 10.5013641,5.9 Z" id="Icon"></path>
                </g>
            </g>
        </g>
    </g>
</svg>