<svg xmlns="http://www.w3.org/2000/svg" xmlns:xlink="http://www.w3.org/1999/xlink" width="24" height="24" viewBox="0 0 24 24">
  <defs>
    <path id="select-all-a02-a" d="M16.256674,10 L10,10 L10,15.9586103 L6.67939586,15.9586103 L4.31813264,8.69138935 L10.5,4.19999981 L16.6818674,8.69138935 L16.256674,10 Z M6.5708,22 L5.9998,22 C5.5078,22 5.0418,21.899 4.6058,21.736 L4.9508,20.812 C5.2858,20.937 5.6388,21 5.9998,21 L6.5708,21 L6.5708,22 Z M3.7319,19.9639 L2.9889,20.6079 C2.5579,20.1099 2.2389,19.5149 2.0949,18.8489 L3.0669,18.6379 C3.1729,19.1259 3.4029,19.5839 3.7319,19.9639 Z M2,16.856 L2,14.856 L3,14.856 L3,16.856 L2,16.856 Z M2,8.856 L2,6.856 L3,6.856 L3,8.856 L2,8.856 Z M2,12.856 L2,10.856 L3,10.856 L3,12.856 L2,12.856 Z M20.73,19.2466 L21.63,19.6586 C21.351,20.2696 20.92,20.7926 20.388,21.1916 L19.797,20.4026 C20.199,20.1016 20.522,19.7016 20.73,19.2466 Z M10,3 L10,2 L12,2 L12,3 L10,3 Z M3.1206,5.1533 L2.1796,4.8773 C2.3706,4.2273 2.7046,3.6383 3.1716,3.1713 L3.8786,3.8793 C3.5226,4.2343 3.2616,4.6743 3.1206,5.1533 Z M14,3 L14,2 L16,2 L16,3 L14,3 Z M21,17.714 L21,15.714 L22,15.714 L22,17.714 L21,17.714 Z M21,13.714 L21,11.714 L22,11.714 L22,13.714 L21,13.714 Z M21,9.714 L21,7.714 L22,7.714 L22,9.714 L21,9.714 Z M19.4375,3.3662 C19.0005,3.1262 18.5025,3.0002 18.0005,3.0002 L18.0005,2.0002 C18.6955,2.0002 19.3385,2.1932 19.9085,2.5052 L19.4375,3.3662 Z M12.571,22 L12.571,21 L14.571,21 L14.571,22 L12.571,22 Z M21.9712,5.7163 L20.9922,5.7853 C20.9562,5.2853 20.7952,4.7993 20.5242,4.3793 L21.3592,3.8413 C21.7112,4.3883 21.9222,5.0293 21.9712,5.7163 Z M6,3 C5.732,2.98 5.428,3.041 5.155,3.12 L4.879,2.179 C5.237,2.074 5.608,2 6,2 L8,2 L8,3 L6,3 Z M8.571,22 L8.571,21 L10.571,21 L10.571,22 L8.571,22 Z M18.5664,21.9429 C18.3794,21.9699 18.1934,21.9999 18.0004,21.9999 L16.5704,21.9999 L16.5704,20.9999 L18.0004,20.9999 C18.1434,20.9999 18.2874,20.9889 18.4284,20.9689 L18.5664,21.9429 Z M11,11 L19,11 L19,19 L11,19 L11,11 Z"/>
  </defs>
  <g fill="none" fill-rule="evenodd">
    <use fill="#0E71B3" xlink:href="#select-all-a02-a"/>
  </g>
</svg>
