<svg xmlns="http://www.w3.org/2000/svg" width="24" height="24" viewBox="0 0 24 24">
  <path fill="#FFF" fill-rule="evenodd" d="M12.7999998,10.631825 L12.7999998,20 L11.1999998,20 L11.1999998,10.6318248 C10.0714053,10.2892102 9.25,9.24052982 9.25,8 C9.25,6.75947018 10.0714053,5.71078984 11.1999998,5.36817515 L11.1999998,4 L12.7999998,4 L12.7999998,5.36817504 C13.9285945,5.71078962 14.75,6.75947004 14.75,8 C14.75,9.24052996 13.9285945,10.2892104 12.7999998,10.631825 Z M18.8000008,13.3681753 C19.928595,13.7107902 20.75,14.7594704 20.75,16 C20.75,17.2405296 19.928595,18.2892098 18.8000008,18.6318247 L18.8000008,20 L17.2000008,20 L17.2000008,18.6318251 C16.0714058,18.2892107 15.25,17.2405302 15.25,16 C15.25,14.7594698 16.0714058,13.7107893 17.2000008,13.3681749 L17.2000008,4 L18.8000008,4 L18.8000008,13.3681753 Z M6.79999983,16.631825 L6.79999983,20 L5.19999981,20 L5.19999981,16.6318248 C4.07140532,16.2892102 3.25,15.2405298 3.25,14 C3.25,12.7594702 4.07140532,11.7107898 5.19999981,11.3681752 L5.19999981,4 L6.79999983,4 L6.79999983,11.368175 C7.92859451,11.7107896 8.75,12.75947 8.75,14 C8.75,15.24053 7.92859451,16.2892104 6.79999983,16.631825 Z M6,15.25 C6.69035594,15.25 7.25,14.6903559 7.25,14 C7.25,13.3096441 6.69035594,12.75 6,12.75 C5.30964406,12.75 4.75,13.3096441 4.75,14 C4.75,14.6903559 5.30964406,15.25 6,15.25 Z M18,17.25 C18.6903559,17.25 19.25,16.6903559 19.25,16 C19.25,15.3096441 18.6903559,14.75 18,14.75 C17.3096441,14.75 16.75,15.3096441 16.75,16 C16.75,16.6903559 17.3096441,17.25 18,17.25 Z M12,9.25 C12.6903559,9.25 13.25,8.69035594 13.25,8 C13.25,7.30964406 12.6903559,6.75 12,6.75 C11.3096441,6.75 10.75,7.30964406 10.75,8 C10.75,8.69035594 11.3096441,9.25 12,9.25 Z"/>
</svg>
