<svg xmlns="http://www.w3.org/2000/svg" width="24" height="24" viewBox="0 0 24 24">
  <path fill="#FFF" d="M17.6564971,9 L17,9 L17,7 L17.6564971,7 L14.3282486,3.67175144 L15.6717514,2.32824856 L21.3435029,8 L15.6717514,13.6717514 L14.3282486,12.3282486 L17.6564971,9 Z M5,19 L19,19 L19,13 L21,13 L21,20 C21,20.5522847 20.5522847,21 20,21 L4,21 C3.44771525,21 3,20.5522847 3,20 L3,7 C3,6.44771525 3.44771525,6 4,6 L10,6 L10,8 L5,8 L5,19 Z M12,6 L10,8 L10,6 L12,6 Z M19,13 L21,11 L21,13 L19,13 Z M17,7 L17,9 C13.1340068,9 10,12.1340068 10,16 L8,16 C8,11.0294373 12.0294373,7 17,7 Z M10,17 L8,17 L8,16 L10,16 L10,17 Z"/>
</svg>
