<svg xmlns="http://www.w3.org/2000/svg" xmlns:xlink="http://www.w3.org/1999/xlink" width="24" height="24" viewBox="0 0 24 24">
  <defs>
    <path id="square-a01disabled-a" d="M4.5,5 C4.77614237,5 5,4.77614237 5,4.5 C5,4.22385763 4.77614237,4 4.5,4 C4.22385763,4 4,4.22385763 4,4.5 C4,4.77614237 4.22385763,5 4.5,5 Z M4.5,6 C3.67157288,6 3,5.32842712 3,4.5 C3,3.67157288 3.67157288,3 4.5,3 C5.32842712,3 6,3.67157288 6,4.5 C6,5.32842712 5.32842712,6 4.5,6 Z M19.5,5 C19.7761424,5 20,4.77614237 20,4.5 C20,4.22385763 19.7761424,4 19.5,4 C19.2238576,4 19,4.22385763 19,4.5 C19,4.77614237 19.2238576,5 19.5,5 Z M19.5,6 C18.6715729,6 18,5.32842712 18,4.5 C18,3.67157288 18.6715729,3 19.5,3 C20.3284271,3 21,3.67157288 21,4.5 C21,5.32842712 20.3284271,6 19.5,6 Z M4.5,20 C4.77614237,20 5,19.7761424 5,19.5 C5,19.2238576 4.77614237,19 4.5,19 C4.22385763,19 4,19.2238576 4,19.5 C4,19.7761424 4.22385763,20 4.5,20 Z M4.5,21 C3.67157288,21 3,20.3284271 3,19.5 C3,18.6715729 3.67157288,18 4.5,18 C5.32842712,18 6,18.6715729 6,19.5 C6,20.3284271 5.32842712,21 4.5,21 Z M19.5,20 C19.7761424,20 20,19.7761424 20,19.5 C20,19.2238576 19.7761424,19 19.5,19 C19.2238576,19 19,19.2238576 19,19.5 C19,19.7761424 19.2238576,20 19.5,20 Z M20,18.0853529 C20.5825962,18.2912711 21,18.8468906 21,19.5 C21,20.3284271 20.3284271,21 19.5,21 C18.8468906,21 18.2912711,20.5825962 18.0853529,20 L5,20 L5,19 L18.0853529,19 C18.2359953,18.5737933 18.5737933,18.2359953 19,18.0853529 L19,5 L20,5 L20,18.0853529 Z M5,4 L19,4 L19,5 L5,5 L5,4 Z M4,5 L5,5 L5,19 L4,19 L4,5 Z"/>
  </defs>
  <g fill="none" fill-rule="evenodd">
    <g opacity=".2">
      <rect width="14" height="14" fill="#333" opacity=".3" transform="translate(5 5)"/>
    </g>
    <mask id="square-a01disabled-b" fill="#fff">
      <use xlink:href="#square-a01disabled-a"/>
    </mask>
    <g fill="#333" mask="url(#square-a01disabled-b)" opacity=".3">
      <rect width="24" height="24"/>
    </g>
  </g>
</svg>
