<svg width="24" height="24" viewBox="0 0 24 24" xmlns="http://www.w3.org/2000/svg">
    <path fill="#F3F3F3" d="M5,5h14v14H5V5z"/>
    <path fill="#C2C2C2" d="M20,18.1V5.9c0.6-0.2,1-0.8,1-1.4C21,3.7,20.3,3,19.5,3c-0.7,0-1.2,0.4-1.4,1H5.9C5.7,3.4,5.2,3,4.5,3C3.7,3,3,3.7,3,4.5c0,0.7,0.4,1.2,1,1.4v12.2c-0.6,0.2-1,0.8-1,1.4C3,20.3,3.7,21,4.5,21c0.7,0,1.2-0.4,1.4-1h12.2c0.2,0.6,0.8,1,1.4,1c0.8,0,1.5-0.7,1.5-1.5C21,18.8,20.6,18.3,20,18.1z M19.5,4C19.8,4,20,4.2,20,4.5S19.8,5,19.5,5S19,4.8,19,4.5S19.2,4,19.5,4z M4.5,4C4.8,4,5,4.2,5,4.5S4.8,5,4.5,5S4,4.8,4,4.5S4.2,4,4.5,4z M4.5,20C4.2,20,4,19.8,4,19.5S4.2,19,4.5,19S5,19.2,5,19.5S4.8,20,4.5,20z M18.1,19H5.9c-0.2-0.4-0.5-0.8-0.9-0.9V5.9C5.4,5.8,5.8,5.4,5.9,5h12.2c0.2,0.4,0.5,0.8,0.9,0.9v12.2C18.6,18.2,18.2,18.6,18.1,19z M19.5,20c-0.3,0-0.5-0.2-0.5-0.5s0.2-0.5,0.5-0.5s0.5,0.2,0.5,0.5S19.8,20,19.5,20z"/>
</svg>
