<?xml version="1.0" encoding="UTF-8"?>
<svg width="24px" height="24px" viewBox="0 0 24 24" version="1.1" xmlns="http://www.w3.org/2000/svg" xmlns:xlink="http://www.w3.org/1999/xlink">
    <!-- Generator: Sketch 46.2 (44496) - http://www.bohemiancoding.com/sketch -->
    <title>Icon/tool/upload</title>
    <desc>Created with Sketch.</desc>
    <defs>
        <path d="M11,7.11668875 L7.7065847,10.4113203 L6.29289322,8.99710674 L11.9978931,3.28999996 L17.7028931,8.99710674 L16.2892016,10.4113203 L13,7.12090402 L13,17 L11,17 L11,7.11668875 Z M19,19 L19,15 L21,15 L21,20 C21,20.5522847 20.5522847,21 20,21 L4,21 C3.44771525,21 3,20.5522847 3,20 L3,15 L5,15 L5,19 L19,19 Z" id="path-1"></path>
    </defs>
    <g id="2.-Core" stroke="none" stroke-width="1" fill="none" fill-rule="evenodd">
        <g id="Core/Icons" transform="translate(-550.000000, -840.000000)">
            <g id="Tools" transform="translate(390.000000, 800.000000)">
                <g id="Icon/tool/upload" transform="translate(160.000000, 40.000000)">
                    <mask id="mask-2" fill="white">
                        <use xlink:href="#path-1"></use>
                    </mask>
                    <g id="Icon" fill-rule="nonzero"></g>
                    <g id="Color/a-01-aaa" mask="url(#mask-2)" fill-rule="evenodd" fill="#333333">
                        <rect id="Rectangle" x="0" y="0" width="24" height="24"></rect>
                    </g>
                </g>
            </g>
        </g>
    </g>
</svg>