<svg fill="#333333" width="24" height="24" viewBox="0 0 24 24" xmlns="http://www.w3.org/2000/svg">
    <path d="M14.4,20.3c-0.7,0-1.3-0.1-2-0.2l-2.2,0.2c-3,0.2-5.9-0.9-7.9-3.2l-0.6-0.7l0.6-0.7c0.9-1,2.1-1.9,3.5-2.4c-0.6-1-1-2.3-1-3.6C4.8,6.6,6.9,4,9.4,4c0.9,0,1.7,0.3,2.4,0.8l0.1,0.1C12.6,4.3,13.5,4,14.4,4C16.9,4,19,6.6,19,9.8c0,1.3-0.3,2.6-1,3.6c1.4,0.5,2.6,1.3,3.5,2.4l0.6,0.7l-0.6,0.7C19.7,19.2,17.1,20.3,14.4,20.3z M8.1,16.5c1.6,1.8,3.9,2.8,6.3,2.8c2.4,0,4.8-1,6.4-2.9l0,0c-0.9-1.1-2.2-1.9-3.7-2.3l-0.7-0.2l0.5-0.6c0.7-0.9,1.2-2.2,1.2-3.5C18,7.2,16.4,5,14.4,5c-1.3,0-2.5,1-3.1,2.4C11,8.1,10.8,9,10.8,9.8c0,0,0,0,0,0c0,0,0,0,0,0c0,0,0,0,0,0c0,0,0,0,0,0c0,0,0,0,0,0c0,0,0,0,0,0c0,0,0,0,0,0c0,0,0,0,0,0c0,0,0,0,0,0c0,0,0,0,0,0c0,0,0,0,0,0c0,0,0,0,0,0c0,0,0,0,0,0v0c0,1.3,0.4,2.6,1.2,3.5l0.5,0.6l-0.7,0.2c-0.2,0-0.3,0.1-0.5,0.2l-0.1,0c-1.2,0.5-2.3,1.2-3.1,2.1c0,0,0,0,0,0C8,16.4,8,16.5,8.1,16.5C8,16.5,8.1,16.5,8.1,16.5z M3,16.5c1.8,2,4.5,3.1,7.1,2.9l0,0c-1-0.5-2-1.2-2.7-2.1c0,0,0,0,0,0c0,0-0.1-0.1-0.1-0.1c0,0,0,0,0,0l-0.6-0.7l0.6-0.7c0,0,0,0,0,0c0,0,0,0,0,0c0.9-1,2.1-1.9,3.5-2.4c-0.6-1-1-2.3-1-3.6v0c0,0,0,0,0,0c0-1.6,0.5-3.1,1.4-4.2l0,0C10.7,5.2,10,5,9.4,5c-2,0-3.6,2.2-3.6,4.8c0,1.3,0.4,2.6,1.2,3.5l0.5,0.6l-0.7,0.2C5.2,14.6,3.9,15.4,3,16.5L3,16.5z"/>
</svg>
