<?xml version="1.0" encoding="UTF-8"?>
<svg width="24px" height="24px" viewBox="0 0 24 24" version="1.1" xmlns="http://www.w3.org/2000/svg" xmlns:xlink="http://www.w3.org/1999/xlink">
    <!-- Generator: Sketch 48.1 (47250) - http://www.bohemiancoding.com/sketch -->
    <title>Icon/menu/users</title>
    <desc>Created with Sketch.</desc>
    <defs></defs>
    <g id="Core/Icons" stroke="none" stroke-width="1" fill="none" fill-rule="evenodd" transform="translate(-500.000000, -1060.000000)">
        <g id="Menu" transform="translate(60.000000, 774.000000)" stroke="#333333">
            <g id="Icon/menu/users-a01" transform="translate(440.000000, 286.000000)">
                <path d="M6.56396192,13.6796362 C5.76670237,12.6897734 5.30007029,11.3075128 5.30007029,9.82653061 C5.30007029,6.91120467 7.10048464,4.5 9.40397628,4.5 C10.1540259,4.5 10.8722866,4.75946064 11.4972131,5.23892992 L11.9049455,5.55175893 L11.5810457,5.95075339 C10.7699287,6.94992397 10.3000703,8.34230853 10.3000703,9.82653061 C10.3000703,11.0479582 10.6179887,12.2173852 11.1950493,13.1558325 L11.5136949,13.6740312 L10.9436032,13.8863058 C9.61293837,14.3817812 8.46591462,15.1562667 7.62228138,16.1289339 L7.33357581,16.461797 L7.62749233,16.7900681 C8.39453405,17.6467656 9.30661404,18.3474021 10.3186871,18.8598271 L11.9043755,19.6626808 L10.1326756,19.8043186 C9.89112984,19.8236288 9.6481043,19.8333333 9.40397628,19.8333333 C6.78879731,19.8333333 4.35045735,18.7144223 2.62749233,16.7900681 L2.33357581,16.461797 L2.62228138,16.1289339 C3.59968072,15.0020411 4.97831944,14.1477023 6.56396192,13.6796362 Z M11.5639619,13.6796362 C10.7667024,12.6897734 10.3000703,11.3075128 10.3000703,9.82653061 C10.3000703,6.91120467 12.1004846,4.5 14.4039763,4.5 C16.7074679,4.5 18.5078823,6.91120467 18.5078823,9.82653061 C18.5078823,11.3075128 18.0412502,12.6897734 17.2439906,13.6796362 C18.8296331,14.1477023 20.2082718,15.0020411 21.1856712,16.1289339 L21.4743768,16.461797 L21.1804602,16.7900681 C19.4574952,18.7144223 17.0191553,19.8333333 14.4039763,19.8333333 C11.7887973,19.8333333 9.35045735,18.7144223 7.62749233,16.7900681 L7.33357581,16.461797 L7.62228138,16.1289339 C8.59968072,15.0020411 9.97831944,14.1477023 11.5639619,13.6796362 Z" id="Icon"></path>
            </g>
        </g>
    </g>
</svg>