<?xml version="1.0" encoding="UTF-8"?>
<svg width="24px" height="24px" viewBox="0 0 24 24" version="1.1" xmlns="http://www.w3.org/2000/svg" xmlns:xlink="http://www.w3.org/1999/xlink">
    <!-- Generator: Sketch 48.1 (47250) - http://www.bohemiancoding.com/sketch -->
    <title>Icon/menu/lorg</title>
    <desc>Created with Sketch.</desc>
    <defs></defs>
    <g id="Core/Icons" stroke="none" stroke-width="1" fill="none" fill-rule="evenodd" transform="translate(-340.000000, -1060.000000)">
        <g id="Menu" transform="translate(60.000000, 774.000000)" fill="#333333" fill-rule="nonzero">
            <g id="Icon/menu/lorg-a01" transform="translate(280.000000, 286.000000)">
                <path d="M12.2479442,5.20075755 L23.5083609,11.5653409 C23.8469894,11.7567396 23.8469894,12.244505 23.5083609,12.4359037 L12.2479442,18.8004871 C12.0952748,18.8867785 11.9085565,18.8867785 11.755887,18.8004871 L0.495470319,12.4359037 C0.156841823,12.244505 0.156841823,11.7567396 0.495470319,11.5653409 L11.755887,5.20075755 C11.9085565,5.11446611 12.0952748,5.11446611 12.2479442,5.20075755 Z M12.0019156,6.21038005 L1.75764086,12.0006223 L12.0019156,17.7908646 L22.2461904,12.0006223 L12.0019156,6.21038005 Z" id="Outline"></path>
                <path d="M12.2427405,5.20075755 L19.7489509,9.44339824 C20.0875794,9.63479695 20.0875794,10.1225624 19.7489509,10.3139611 L12.2427405,14.5566018 C12.090071,14.6428932 11.9033527,14.6428932 11.7506832,14.5566018 L4.24447278,10.3139611 C3.90584428,10.1225624 3.90584428,9.63479695 4.24447278,9.44339824 L11.7506832,5.20075755 C11.9033527,5.11446611 12.090071,5.11446611 12.2427405,5.20075755 Z M11.9967119,6.21038005 L5.50664331,9.87867966 L11.9967119,13.5469793 L18.4867804,9.87867966 L11.9967119,6.21038005 Z" id="Outline"></path>
                <path d="M12.2458756,9.44339824 L19.7520861,13.6860389 C20.0907146,13.8774376 20.0907146,14.365203 19.7520861,14.5566018 L12.2458756,18.7992425 C12.0932061,18.8855339 11.9064878,18.8855339 11.7538184,18.7992425 L4.24760791,14.5566018 C3.90897942,14.365203 3.90897942,13.8774376 4.24760791,13.6860389 L11.7538184,9.44339824 C11.9064878,9.3571068 12.0932061,9.3571068 12.2458756,9.44339824 Z M11.999847,10.4530207 L5.50977845,14.1213203 L11.999847,17.78962 L18.4899155,14.1213203 L11.999847,10.4530207 Z" id="Outline"></path>
            </g>
        </g>
    </g>
</svg>