<svg fill="#FFFFFF" width="24" height="24" viewBox="0 0 24 24" xmlns="http://www.w3.org/2000/svg">
    <path d="M23.5,11.6L12.2,5.2c-0.1,0-0.2-0.1-0.2-0.1c-0.1,0-0.2,0-0.2,0.1L4.2,9.4c0,0,0,0,0,0l-3.7,2.1c-0.3,0.2-0.3,0.7,0,0.9l11.3,6.4c0.2,0.1,0.3,0.1,0.5,0l11.3-6.4C23.8,12.2,23.8,11.8,23.5,11.6z M12,17.8l-6.5-3.7l2.7-1.5l3.5,2c0.2,0.1,0.3,0.1,0.5,0l3.5-2l2.7,1.5L12,17.8z M12,13.5L9.3,12l2.7-1.5l2.7,1.5L12,13.5z M12.2,9.4c-0.2-0.1-0.3-0.1-0.5,0l-3.5,2L5.5,9.9L12,6.2l6.5,3.7l-2.7,1.5L12.2,9.4z M4.5,10.5L7.2,12l-2.7,1.5L1.8,12L4.5,10.5z M19.5,13.5L16.8,12l2.7-1.5l2.7,1.5L19.5,13.5z"/>
</svg>
